999
dxflib 2.0.4.8
  0
SECTION
  2
HEADER
  9
$ACADVER
  1
AC1015
  9
$HANDSEED
  5
FFFF
  9
$DIMASZ
 40
2.5
  9
$DIMGAP
 40
0.625
  9
$DIMEXO
 40
0.625
  9
$INSUNITS
 70
4
  9
$DIMTXT
 40
2.5
  9
$DIMSTYLE
  2
Standard
  9
$PLIMMAX
 10
210.0
 20
297.0
  9
$PLIMMIN
 10
0.0
 20
0.0
  9
$DIMEXE
 40
1.25
  0
ENDSEC
  0
SECTION
  2
TABLES
  0
TABLE
  2
VPORT
  5
8
100
AcDbSymbolTable
 70
1
  0
VPORT
  5
30
100
AcDbSymbolTableRecord
100
AcDbViewportTableRecord
  2
*Active
 70
0
 10
0.0
 20
0.0
 11
1.0
 21
1.0
 12
286.3055555555554861
 22
148.5
 13
0.0
 23
0.0
 14
10.0
 24
10.0
 15
10.0
 25
10.0
 16
0.0
 26
0.0
 36
1.0
 17
0.0
 27
0.0
 37
0.0
 40
297.0
 41
1.92798353909465
 42
50.0
 43
0.0
 44
0.0
 50
0.0
 51
0.0
 71
0
 72
100
 73
1
 74
3
 75
1
 76
1
 77
0
 78
0
281
0
 65
1
110
0.0
120
0.0
130
0.0
111
1.0
121
0.0
131
0.0
112
0.0
122
1.0
132
0.0
 79
0
146
0.0
  0
ENDTAB
  0
TABLE
  2
LTYPE
  5
5
100
AcDbSymbolTable
 70
21
  0
LTYPE
  5
14
100
AcDbSymbolTableRecord
100
AcDbLinetypeTableRecord
  2
ByBlock
 70
0
  3

 72
65
 73
0
 40
0.0
  0
LTYPE
  5
15
100
AcDbSymbolTableRecord
100
AcDbLinetypeTableRecord
  2
ByLayer
 70
0
  3

 72
65
 73
0
 40
0.0
  0
LTYPE
  5
16
100
AcDbSymbolTableRecord
100
AcDbLinetypeTableRecord
  2
CONTINUOUS
 70
0
  3
Solid line
 72
65
 73
0
 40
0.0
  0
LTYPE
  5
31
100
AcDbSymbolTableRecord
100
AcDbLinetypeTableRecord
  2
DOT
 70
0
  3
Dot . . . . . . . . . . . . . . . . . . . . . .
 72
65
 73
2
 40
6.3499999999999996
 49
0.0
 74
0
 49
-6.3499999999999996
 74
0
  0
LTYPE
  5
32
100
AcDbSymbolTableRecord
100
AcDbLinetypeTableRecord
  2
DOT2
 70
0
  3
Dot (.5x) .....................................
 72
65
 73
2
 40
3.1749999999999998
 49
0.0
 74
0
 49
-3.1749999999999998
 74
0
  0
LTYPE
  5
33
100
AcDbSymbolTableRecord
100
AcDbLinetypeTableRecord
  2
DOTX2
 70
0
  3
Dot (2x) .  .  .  .  .  .  .  .  .  .  .  .  .
 72
65
 73
2
 40
12.6999999999999993
 49
0.0
 74
0
 49
-12.6999999999999993
 74
0
  0
LTYPE
  5
34
100
AcDbSymbolTableRecord
100
AcDbLinetypeTableRecord
  2
DASHED
 70
0
  3
Dashed __ __ __ __ __ __ __ __ __ __ __ __ __ _
 72
65
 73
2
 40
19.0500000000000007
 49
12.6999999999999993
 74
0
 49
-6.3499999999999996
 74
0
  0
LTYPE
  5
35
100
AcDbSymbolTableRecord
100
AcDbLinetypeTableRecord
  2
DASHED2
 70
0
  3
Dashed (.5x) _ _ _ _ _ _ _ _ _ _ _ _ _ _ _ _ _
 72
65
 73
2
 40
9.5250000000000004
 49
6.3499999999999996
 74
0
 49
-3.1749999999999998
 74
0
  0
LTYPE
  5
36
100
AcDbSymbolTableRecord
100
AcDbLinetypeTableRecord
  2
DASHEDX2
 70
0
  3
Dashed (2x) ____  ____  ____  ____  ____  ___
 72
65
 73
2
 40
38.1000000000000014
 49
25.3999999999999986
 74
0
 49
-12.6999999999999993
 74
0
  0
LTYPE
  5
37
100
AcDbSymbolTableRecord
100
AcDbLinetypeTableRecord
  2
DASHDOT
 70
0
  3
Dash dot __ . __ . __ . __ . __ . __ . __ . __
 72
65
 73
4
 40
25.3999999999999986
 49
12.6999999999999993
 74
0
 49
-6.3499999999999996
 74
0
 49
0.0
 74
0
 49
-6.3499999999999996
 74
0
  0
LTYPE
  5
38
100
AcDbSymbolTableRecord
100
AcDbLinetypeTableRecord
  2
DASHDOT2
 70
0
  3
Dash dot (.5x) _._._._._._._._._._._._._._._.
 72
65
 73
4
 40
12.6999999999999993
 49
6.3499999999999996
 74
0
 49
-3.1749999999999998
 74
0
 49
0.0
 74
0
 49
-3.1749999999999998
 74
0
  0
LTYPE
  5
39
100
AcDbSymbolTableRecord
100
AcDbLinetypeTableRecord
  2
DASHDOTX2
 70
0
  3
Dash dot (2x) ____  .  ____  .  ____  .  ___
 72
65
 73
4
 40
50.7999999999999972
 49
25.3999999999999986
 74
0
 49
-12.6999999999999993
 74
0
 49
0.0
 74
0
 49
-12.6999999999999993
 74
0
  0
LTYPE
  5
3A
100
AcDbSymbolTableRecord
100
AcDbLinetypeTableRecord
  2
DIVIDE
 70
0
  3
Divide ____ . . ____ . . ____ . . ____ . . ____
 72
65
 73
6
 40
31.75
 49
12.6999999999999993
 74
0
 49
-6.3499999999999996
 74
0
 49
0.0
 74
0
 49
-6.3499999999999996
 74
0
 49
0.0
 74
0
 49
-6.3499999999999996
 74
0
  0
LTYPE
  5
3B
100
AcDbSymbolTableRecord
100
AcDbLinetypeTableRecord
  2
DIVIDE2
 70
0
  3
Divide (.5x) __..__..__..__..__..__..__..__.._
 72
65
 73
6
 40
15.875
 49
6.3499999999999996
 74
0
 49
-3.1749999999999998
 74
0
 49
0.0
 74
0
 49
-3.1749999999999998
 74
0
 49
0.0
 74
0
 49
-3.1749999999999998
 74
0
  0
LTYPE
  5
3C
100
AcDbSymbolTableRecord
100
AcDbLinetypeTableRecord
  2
DIVIDEX2
 70
0
  3
Divide (2x) ________  .  .  ________  .  .  _
 72
65
 73
6
 40
63.5
 49
25.3999999999999986
 74
0
 49
-12.6999999999999993
 74
0
 49
0.0
 74
0
 49
-12.6999999999999993
 74
0
 49
0.0
 74
0
 49
-12.6999999999999993
 74
0
  0
LTYPE
  5
3D
100
AcDbSymbolTableRecord
100
AcDbLinetypeTableRecord
  2
CENTER
 70
0
  3
Center ____ _ ____ _ ____ _ ____ _ ____ _ ____
 72
65
 73
4
 40
50.7999999999999972
 49
31.75
 74
0
 49
-6.3499999999999996
 74
0
 49
6.3499999999999996
 74
0
 49
-6.3499999999999996
 74
0
  0
LTYPE
  5
3E
100
AcDbSymbolTableRecord
100
AcDbLinetypeTableRecord
  2
CENTER2
 70
0
  3
Center (.5x) ___ _ ___ _ ___ _ ___ _ ___ _ ___
 72
65
 73
4
 40
28.5749999999999993
 49
19.0500000000000007
 74
0
 49
-3.1749999999999998
 74
0
 49
3.1749999999999998
 74
0
 49
-3.1749999999999998
 74
0
  0
LTYPE
  5
3F
100
AcDbSymbolTableRecord
100
AcDbLinetypeTableRecord
  2
CENTERX2
 70
0
  3
Center (2x) ________  __  ________  __  _____
 72
65
 73
4
 40
101.5999999999999943
 49
63.5
 74
0
 49
-12.6999999999999993
 74
0
 49
12.6999999999999993
 74
0
 49
-12.6999999999999993
 74
0
  0
LTYPE
  5
40
100
AcDbSymbolTableRecord
100
AcDbLinetypeTableRecord
  2
BORDER
 70
0
  3
Border __ __ . __ __ . __ __ . __ __ . __ __ .
 72
65
 73
6
 40
44.4500000000000028
 49
12.6999999999999993
 74
0
 49
-6.3499999999999996
 74
0
 49
12.6999999999999993
 74
0
 49
-6.3499999999999996
 74
0
 49
0.0
 74
0
 49
-6.3499999999999996
 74
0
  0
LTYPE
  5
41
100
AcDbSymbolTableRecord
100
AcDbLinetypeTableRecord
  2
BORDER2
 70
0
  3
Border (.5x) __.__.__.__.__.__.__.__.__.__.__.
 72
65
 73
6
 40
22.2250000000000014
 49
6.3499999999999996
 74
0
 49
-3.1749999999999998
 74
0
 49
6.3499999999999996
 74
0
 49
-3.1749999999999998
 74
0
 49
0.0
 74
0
 49
-3.1749999999999998
 74
0
  0
LTYPE
  5
42
100
AcDbSymbolTableRecord
100
AcDbLinetypeTableRecord
  2
BORDERX2
 70
0
  3
Border (2x) ____  ____  .  ____  ____  .  ___
 72
65
 73
6
 40
88.9000000000000057
 49
25.3999999999999986
 74
0
 49
-12.6999999999999993
 74
0
 49
25.3999999999999986
 74
0
 49
-12.6999999999999993
 74
0
 49
0.0
 74
0
 49
-12.6999999999999993
 74
0
  0
ENDTAB
  0
TABLE
  2
LAYER
  5
2
100
AcDbSymbolTable
 70
40
  0
LAYER
  5
10
100
AcDbSymbolTableRecord
100
AcDbLayerTableRecord
  2
0
 70
0
 62
7
  6
CONTINUOUS
370
0
390
F
  0
LAYER
  5
43
100
AcDbSymbolTableRecord
100
AcDbLayerTableRecord
  2
CLK
 70
0
 62
7
  6
CONTINUOUS
370
0
390
F
  0
LAYER
  5
44
100
AcDbSymbolTableRecord
100
AcDbLayerTableRecord
  2
RESET
 70
0
 62
7
  6
CONTINUOUS
370
0
390
F
  0
LAYER
  5
45
100
AcDbSymbolTableRecord
100
AcDbLayerTableRecord
  2
RX_SOP_N
 70
0
 62
7
  6
CONTINUOUS
370
0
390
F
  0
LAYER
  5
46
100
AcDbSymbolTableRecord
100
AcDbLayerTableRecord
  2
RX_DATA
 70
0
 62
7
  6
CONTINUOUS
370
0
390
F
  0
LAYER
  5
47
100
AcDbSymbolTableRecord
100
AcDbLayerTableRecord
  2
RX_SOF_N
 70
0
 62
7
  6
CONTINUOUS
370
0
390
F
  0
LAYER
  5
48
100
AcDbSymbolTableRecord
100
AcDbLayerTableRecord
  2
dst_rdy_n
 70
0
 62
7
  6
CONTINUOUS
370
0
390
F
  0
LAYER
  5
49
100
AcDbSymbolTableRecord
100
AcDbLayerTableRecord
  2
RX_SRC_RDY_N
 70
0
 62
7
  6
CONTINUOUS
370
0
390
F
  0
LAYER
  5
4A
100
AcDbSymbolTableRecord
100
AcDbLayerTableRecord
  2
cnt_en
 70
0
 62
7
  6
CONTINUOUS
370
0
390
F
  0
LAYER
  5
4B
100
AcDbSymbolTableRecord
100
AcDbLayerTableRecord
  2
RX_EOF_N
 70
0
 62
7
  6
CONTINUOUS
370
0
390
F
  0
LAYER
  5
4C
100
AcDbSymbolTableRecord
100
AcDbLayerTableRecord
  2
part_num
 70
0
 62
7
  6
CONTINUOUS
370
0
390
F
  0
LAYER
  5
4D
100
AcDbSymbolTableRecord
100
AcDbLayerTableRecord
  2
ext_addr_en
 70
0
 62
7
  6
CONTINUOUS
370
0
390
F
  0
LAYER
  5
4E
100
AcDbSymbolTableRecord
100
AcDbLayerTableRecord
  2
word_num
 70
0
 62
7
  6
CONTINUOUS
370
0
390
F
  0
LAYER
  5
4F
100
AcDbSymbolTableRecord
100
AcDbLayerTableRecord
  2
data
 70
0
 62
7
  6
CONTINUOUS
370
0
390
F
  0
LAYER
  5
50
100
AcDbSymbolTableRecord
100
AcDbLayerTableRecord
  2
ext_addr_index
 70
0
 62
7
  6
CONTINUOUS
370
0
390
F
  0
LAYER
  5
51
100
AcDbSymbolTableRecord
100
AcDbLayerTableRecord
  2
ext_en
 70
0
 62
7
  6
CONTINUOUS
370
0
390
F
  0
LAYER
  5
52
100
AcDbSymbolTableRecord
100
AcDbLayerTableRecord
  2
ext_data
 70
0
 62
7
  6
CONTINUOUS
370
0
390
F
  0
LAYER
  5
53
100
AcDbSymbolTableRecord
100
AcDbLayerTableRecord
  2
ext_addr_rst
 70
0
 62
7
  6
CONTINUOUS
370
0
390
F
  0
LAYER
  5
54
100
AcDbSymbolTableRecord
100
AcDbLayerTableRecord
  2
RX_EOP_N
 70
0
 62
7
  6
CONTINUOUS
370
0
390
F
  0
LAYER
  5
55
100
AcDbSymbolTableRecord
100
AcDbLayerTableRecord
  2
EXTRACTED_DONE
 70
0
 62
7
  6
CONTINUOUS
370
0
390
F
  0
LAYER
  5
56
100
AcDbSymbolTableRecord
100
AcDbLayerTableRecord
  2
eof_n
 70
0
 62
7
  6
CONTINUOUS
370
0
390
F
  0
LAYER
  5
57
100
AcDbSymbolTableRecord
100
AcDbLayerTableRecord
  2
eop_n
 70
0
 62
7
  6
CONTINUOUS
370
0
390
F
  0
LAYER
  5
58
100
AcDbSymbolTableRecord
100
AcDbLayerTableRecord
  2
RX_REM
 70
0
 62
7
  6
CONTINUOUS
370
0
390
F
  0
LAYER
  5
59
100
AcDbSymbolTableRecord
100
AcDbLayerTableRecord
  2
data_rem
 70
0
 62
7
  6
CONTINUOUS
370
0
390
F
  0
LAYER
  5
5A
100
AcDbSymbolTableRecord
100
AcDbLayerTableRecord
  2
TX_SRC_RDY_N
 70
0
 62
7
  6
CONTINUOUS
370
0
390
F
  0
LAYER
  5
5B
100
AcDbSymbolTableRecord
100
AcDbLayerTableRecord
  2
TX_DST_RDY_N
 70
0
 62
7
  6
CONTINUOUS
370
0
390
F
  0
LAYER
  5
5C
100
AcDbSymbolTableRecord
100
AcDbLayerTableRecord
  2
send_data_rdy
 70
0
 62
7
  6
CONTINUOUS
370
0
390
F
  0
LAYER
  5
5D
100
AcDbSymbolTableRecord
100
AcDbLayerTableRecord
  2
data_en
 70
0
 62
7
  6
CONTINUOUS
370
0
390
F
  0
LAYER
  5
5E
100
AcDbSymbolTableRecord
100
AcDbLayerTableRecord
  2
send_data
 70
0
 62
7
  6
CONTINUOUS
370
0
390
F
  0
LAYER
  5
5F
100
AcDbSymbolTableRecord
100
AcDbLayerTableRecord
  2
src_rdy_n
 70
0
 62
7
  6
CONTINUOUS
370
0
390
F
  0
LAYER
  5
60
100
AcDbSymbolTableRecord
100
AcDbLayerTableRecord
  2
send_sof_n
 70
0
 62
7
  6
CONTINUOUS
370
0
390
F
  0
LAYER
  5
61
100
AcDbSymbolTableRecord
100
AcDbLayerTableRecord
  2
send_sop_n
 70
0
 62
7
  6
CONTINUOUS
370
0
390
F
  0
LAYER
  5
62
100
AcDbSymbolTableRecord
100
AcDbLayerTableRecord
  2
send_eof_n
 70
0
 62
7
  6
CONTINUOUS
370
0
390
F
  0
LAYER
  5
63
100
AcDbSymbolTableRecord
100
AcDbLayerTableRecord
  2
send_eop_n
 70
0
 62
7
  6
CONTINUOUS
370
0
390
F
  0
LAYER
  5
64
100
AcDbSymbolTableRecord
100
AcDbLayerTableRecord
  2
cut_word_num
 70
0
 62
7
  6
CONTINUOUS
370
0
390
F
  0
LAYER
  5
65
100
AcDbSymbolTableRecord
100
AcDbLayerTableRecord
  2
RX_DST_RDY_N
 70
0
 62
7
  6
CONTINUOUS
370
0
390
F
  0
LAYER
  5
66
100
AcDbSymbolTableRecord
100
AcDbLayerTableRecord
  2
send_data_rem
 70
0
 62
7
  6
CONTINUOUS
370
0
390
F
  0
LAYER
  5
67
100
AcDbSymbolTableRecord
100
AcDbLayerTableRecord
  2
EXTRACTED_ERR
 70
0
 62
7
  6
CONTINUOUS
370
0
390
F
  0
LAYER
  5
68
100
AcDbSymbolTableRecord
100
AcDbLayerTableRecord
  2
TX_SOF_N
 70
0
 62
7
  6
CONTINUOUS
370
0
390
F
  0
LAYER
  5
69
100
AcDbSymbolTableRecord
100
AcDbLayerTableRecord
  2
TX_SOP_N
 70
0
 62
7
  6
CONTINUOUS
370
0
390
F
  0
ENDTAB
  0
TABLE
  2
STYLE
  5
3
100
AcDbSymbolTable
 70
1
  0
STYLE
  5
11
100
AcDbSymbolTableRecord
100
AcDbTextStyleTableRecord
  2
Standard
 70
0
 40
0.0
 41
0.75
 50
0.0
 71
0
 42
2.5
  3
txt
  4

  0
ENDTAB
  0
TABLE
  2
VIEW
  5
6
100
AcDbSymbolTable
 70
0
  0
ENDTAB
  0
TABLE
  2
UCS
  5
7
100
AcDbSymbolTable
 70
0
  0
ENDTAB
  0
TABLE
  2
APPID
  5
9
100
AcDbSymbolTable
 70
1
  0
APPID
  5
12
100
AcDbSymbolTableRecord
100
AcDbRegAppTableRecord
  2
ACAD
 70
0
  0
ENDTAB
  0
TABLE
  2
DIMSTYLE
  5
A
100
AcDbSymbolTable
 70
1
100
AcDbDimStyleTable
 71
0
  0
DIMSTYLE
105
27
100
AcDbSymbolTableRecord
100
AcDbDimStyleTableRecord
  2
Standard
 41
2.5
 42
0.625
 43
3.75
 44
1.25
 70
0
 73
0
 74
0
 77
1
 78
8
140
2.5
141
2.5
143
0.03937007874016
147
0.625
171
3
172
1
271
2
272
2
274
3
278
44
283
0
284
8
340
11
  0
ENDTAB
  0
TABLE
  2
BLOCK_RECORD
  5
1
100
AcDbSymbolTable
 70
1
  0
BLOCK_RECORD
  5
1F
100
AcDbSymbolTableRecord
100
AcDbBlockTableRecord
  2
*Model_Space
340
22
  0
BLOCK_RECORD
  5
1B
100
AcDbSymbolTableRecord
100
AcDbBlockTableRecord
  2
*Paper_Space
340
1E
  0
BLOCK_RECORD
  5
23
100
AcDbSymbolTableRecord
100
AcDbBlockTableRecord
  2
*Paper_Space0
340
26
  0
BLOCK_RECORD
  5
6A
100
AcDbSymbolTableRecord
100
AcDbBlockTableRecord
  2
NOR
340
0
  0
BLOCK_RECORD
  5
6B
100
AcDbSymbolTableRecord
100
AcDbBlockTableRecord
  2
FORK_POINT
340
0
  0
BLOCK_RECORD
  5
6C
100
AcDbSymbolTableRecord
100
AcDbBlockTableRecord
  2
Multiplexor
340
0
  0
BLOCK_RECORD
  5
6D
100
AcDbSymbolTableRecord
100
AcDbBlockTableRecord
  2
REGISTER
340
0
  0
BLOCK_RECORD
  5
6E
100
AcDbSymbolTableRecord
100
AcDbBlockTableRecord
  2
OR
340
0
  0
BLOCK_RECORD
  5
6F
100
AcDbSymbolTableRecord
100
AcDbBlockTableRecord
  2
AND
340
0
  0
ENDTAB
  0
ENDSEC
  0
SECTION
  2
BLOCKS
  0
BLOCK
  5
20
100
AcDbEntity
  8
0
100
AcDbBlockBegin
  2
*Model_Space
 70
0
 10
0.0
 20
0.0
 30
0.0
  3
*Model_Space
  1

  0
ENDBLK
  5
21
100
AcDbEntity
  8
0
100
AcDbBlockEnd
  0
BLOCK
  5
1C
100
AcDbEntity
 67
1
  8
0
100
AcDbBlockBegin
  2
*Paper_Space
 70
0
 10
0.0
 20
0.0
 30
0.0
  3
*Paper_Space
  1

  0
ENDBLK
  5
1D
100
AcDbEntity
 67
1
  8
0
100
AcDbBlockEnd
  0
BLOCK
  5
24
100
AcDbEntity
  8
0
100
AcDbBlockBegin
  2
*Paper_Space0
 70
0
 10
0.0
 20
0.0
 30
0.0
  3
*Paper_Space0
  1

  0
ENDBLK
  5
25
100
AcDbEntity
  8
0
100
AcDbBlockEnd
  0
BLOCK
  5
70
100
AcDbEntity
  8
0
100
AcDbBlockBegin
  2
NOR
 70
0
 10
0.0
 20
0.0
 30
0.0
  3
NOR
  1

  0
LINE
  5
71
100
AcDbEntity
100
AcDbLine
  8
0
 62
256
370
-1
  6
ByLayer
 10
-50.0
 20
-35.0
 30
0.0
 11
-90.0
 21
-35.0
 31
0.0
  0
LINE
  5
72
100
AcDbEntity
100
AcDbLine
  8
0
 62
256
370
-1
  6
ByLayer
 10
-90.0
 20
35.0
 30
0.0
 11
-49.9999999999998863
 21
35.0
 31
0.0
  0
ARC
  5
73
100
AcDbEntity
  8
0
 62
256
370
-1
  6
ByLayer
100
AcDbCircle
 10
-77.5000000000002274
 20
-57.5000000000002274
 30
0.0
 40
96.5012953280942298
100
AcDbArc
 50
36.5730309785193555
 51
73.4429286243632049
  0
ARC
  5
74
100
AcDbEntity
  8
0
 62
256
370
-1
  6
ByLayer
100
AcDbCircle
 10
-77.4999999999998863
 20
57.4999999999998863
 30
0.0
 40
96.5012953280937609
100
AcDbArc
 50
286.5570713756366104
 51
323.4269690214806587
  0
ARC
  5
75
100
AcDbEntity
  8
0
 62
256
370
-1
  6
ByLayer
100
AcDbCircle
 10
-110.625
 20
0.0
 30
0.0
 40
40.625
100
AcDbArc
 50
300.5102374061155501
 51
59.489762593884457
  0
CIRCLE
  5
76
100
AcDbEntity
100
AcDbCircle
  8
0
 62
256
370
-1
  6
ByLayer
 10
6.5
 20
0.0
 30
0.0
 40
6.5
  0
ENDBLK
  5
77
100
AcDbEntity
  8
0
100
AcDbBlockEnd
  0
BLOCK
  5
78
100
AcDbEntity
  8
0
100
AcDbBlockBegin
  2
FORK_POINT
 70
0
 10
0.0
 20
0.0
 30
0.0
  3
FORK_POINT
  1

  0
HATCH
  5
79
  8
0
 62
256
370
-1
  6
ByLayer
100
AcDbEntity
100
AcDbHatch
 10
0.0
 20
0.0
 30
0.0
210
0.0
220
0.0
230
1.0
  2
SOLID
 70
1
 71
0
 91
1
 92
1
 93
1
 72
2
 10
0.0
 20
0.0
 40
6.5
 50
0.0
 51
360.0
 73
1
 97
0
 75
0
 76
1
 98
0
  0
CIRCLE
  5
7A
100
AcDbEntity
100
AcDbCircle
  8
0
 62
256
370
-1
  6
ByLayer
 10
0.0
 20
0.0
 30
0.0
 40
6.5
  0
ENDBLK
  5
7B
100
AcDbEntity
  8
0
100
AcDbBlockEnd
  0
BLOCK
  5
7C
100
AcDbEntity
  8
0
100
AcDbBlockBegin
  2
Multiplexor
 70
0
 10
0.0
 20
0.0
 30
0.0
  3
Multiplexor
  1

  0
LINE
  5
7D
100
AcDbEntity
100
AcDbLine
  8
0
 62
256
370
-1
  6
ByLayer
 10
-50.0
 20
50.0
 30
0.0
 11
-50.0
 21
-50.0
 31
0.0
  0
LINE
  5
7E
100
AcDbEntity
100
AcDbLine
  8
0
 62
256
370
-1
  6
ByLayer
 10
-50.0
 20
-50.0
 30
0.0
 11
0.0
 21
-30.0
 31
0.0
  0
LINE
  5
7F
100
AcDbEntity
100
AcDbLine
  8
0
 62
256
370
-1
  6
ByLayer
 10
0.0
 20
-30.0
 30
0.0
 11
0.0
 21
30.0
 31
0.0
  0
LINE
  5
80
100
AcDbEntity
100
AcDbLine
  8
0
 62
256
370
-1
  6
ByLayer
 10
0.0
 20
30.0
 30
0.0
 11
-50.0
 21
50.0
 31
0.0
  0
ENDBLK
  5
81
100
AcDbEntity
  8
0
100
AcDbBlockEnd
  0
BLOCK
  5
82
100
AcDbEntity
  8
0
100
AcDbBlockBegin
  2
REGISTER
 70
0
 10
0.0
 20
0.0
 30
0.0
  3
REGISTER
  1

  0
LINE
  5
83
100
AcDbEntity
100
AcDbLine
  8
0
 62
256
370
-1
  6
ByLayer
 10
-200.0
 20
100.0
 30
0.0
 11
0.0
 21
100.0
 31
0.0
  0
LINE
  5
84
100
AcDbEntity
100
AcDbLine
  8
0
 62
256
370
-1
  6
ByLayer
 10
0.0
 20
100.0
 30
0.0
 11
0.0
 21
-100.0
 31
0.0
  0
LINE
  5
85
100
AcDbEntity
100
AcDbLine
  8
0
 62
256
370
-1
  6
ByLayer
 10
0.0
 20
-100.0
 30
0.0
 11
-200.0
 21
-100.0
 31
0.0
  0
LINE
  5
86
100
AcDbEntity
100
AcDbLine
  8
0
 62
256
370
-1
  6
ByLayer
 10
-200.0
 20
-100.0
 30
0.0
 11
-200.0
 21
100.0
 31
0.0
  0
LINE
  5
87
100
AcDbEntity
100
AcDbLine
  8
CLK
 62
256
370
-1
  6
ByLayer
 10
-200.0
 20
80.0
 30
0.0
 11
-360.0
 21
80.0
 31
0.0
  0
LINE
  5
88
100
AcDbEntity
100
AcDbLine
  8
RESET
 62
256
370
-1
  6
ByLayer
 10
-200.0
 20
30.0
 30
0.0
 11
-400.0
 21
30.0
 31
0.0
  0
LINE
  5
89
100
AcDbEntity
100
AcDbLine
  8
0
 62
256
370
-1
  6
ByLayer
 10
260.0
 20
0.0
 30
0.0
 11
0.0
 21
0.0
 31
0.0
  0
LINE
  5
8A
100
AcDbEntity
100
AcDbLine
  8
RX_SOF_N
 62
256
370
-1
  6
ByLayer
 10
-200.0
 20
-20.0
 30
0.0
 11
-280.0
 21
-20.0
 31
0.0
  0
LINE
  5
8B
100
AcDbEntity
100
AcDbLine
  8
RX_EOF_N
 62
256
370
-1
  6
ByLayer
 10
-200.0
 20
-70.0
 30
0.0
 11
-240.0
 21
-70.0
 31
0.0
  0
ENDBLK
  5
8C
100
AcDbEntity
  8
0
100
AcDbBlockEnd
  0
BLOCK
  5
8D
100
AcDbEntity
  8
0
100
AcDbBlockBegin
  2
OR
 70
0
 10
0.0
 20
0.0
 30
0.0
  3
OR
  1

  0
LINE
  5
8E
100
AcDbEntity
100
AcDbLine
  8
0
 62
256
370
-1
  6
ByLayer
 10
-50.0000000000000071
 20
-34.9999999999999858
 30
0.0
 11
-90.0000000000000142
 21
-34.9999999999999645
 31
0.0
  0
LINE
  5
8F
100
AcDbEntity
100
AcDbLine
  8
0
 62
256
370
-1
  6
ByLayer
 10
-90.0
 20
34.9999999999999858
 30
0.0
 11
-49.9999999999998792
 21
35.0000000000000142
 31
0.0
  0
ARC
  5
90
100
AcDbEntity
  8
0
 62
256
370
-1
  6
ByLayer
100
AcDbCircle
 10
-77.5000000000002416
 20
-57.5000000000001918
 30
0.0
 40
96.5012953280942298
100
AcDbArc
 50
36.5730309785193555
 51
73.4429286243632049
  0
ARC
  5
91
100
AcDbEntity
  8
0
 62
256
370
-1
  6
ByLayer
100
AcDbCircle
 10
-77.4999999999998863
 20
57.4999999999999005
 30
0.0
 40
96.5012953280937609
100
AcDbArc
 50
286.5570713756366104
 51
323.4269690214806587
  0
ARC
  5
92
100
AcDbEntity
  8
0
 62
256
370
-1
  6
ByLayer
100
AcDbCircle
 10
-110.625
 20
0.0000000000000135
 30
0.0
 40
40.625
100
AcDbArc
 50
300.5102374061155501
 51
59.489762593884457
  0
ENDBLK
  5
93
100
AcDbEntity
  8
0
100
AcDbBlockEnd
  0
BLOCK
  5
94
100
AcDbEntity
  8
0
100
AcDbBlockBegin
  2
AND
 70
0
 10
0.0
 20
0.0
 30
0.0
  3
AND
  1

  0
LINE
  5
95
100
AcDbEntity
100
AcDbLine
  8
0
 62
256
370
-1
  6
ByLayer
 10
-74.9999999999999432
 20
34.9999999999999858
 30
0.0
 11
-74.9999999999999574
 21
-34.9999999999999645
 31
0.0
  0
LINE
  5
96
100
AcDbEntity
100
AcDbLine
  8
0
 62
256
370
-1
  6
ByLayer
 10
-35.0000000000000071
 20
-34.9999999999999858
 30
0.0
 11
-75.0000000000000142
 21
-34.9999999999999645
 31
0.0
  0
LINE
  5
97
100
AcDbEntity
100
AcDbLine
  8
0
 62
256
370
-1
  6
ByLayer
 10
-75.0
 20
34.9999999999999858
 30
0.0
 11
-34.9999999999998792
 21
35.0000000000000142
 31
0.0
  0
ARC
  5
98
100
AcDbEntity
  8
0
 62
256
370
-1
  6
ByLayer
100
AcDbCircle
 10
-35.0
 20
0.0
 30
0.0
 40
35.0
100
AcDbArc
 50
270.0
 51
90.0
  0
ENDBLK
  5
99
100
AcDbEntity
  8
0
100
AcDbBlockEnd
  0
ENDSEC
  0
SECTION
  2
ENTITIES
  0
LINE
  5
9A
100
AcDbEntity
100
AcDbLine
  8
cut_word_num
 62
256
370
-1
  6
ByLayer
 10
0.0
 20
1700.0
 30
0.0
 11
5000.0
 21
1700.0
 31
0.0
  0
LINE
  5
9B
100
AcDbEntity
100
AcDbLine
  8
cut_word_num
 62
256
370
-1
  6
ByLayer
 10
5000.0
 20
1700.0
 30
0.0
 11
5000.0
 21
-1800.0
 31
0.0
  0
LINE
  5
9C
100
AcDbEntity
100
AcDbLine
  8
cut_word_num
 62
256
370
-1
  6
ByLayer
 10
5000.0
 20
-1800.0
 30
0.0
 11
0.0
 21
-1800.0
 31
0.0
  0
LINE
  5
9D
100
AcDbEntity
100
AcDbLine
  8
cut_word_num
 62
256
370
-1
  6
ByLayer
 10
0.0
 20
1700.0
 30
0.0
 11
0.0
 21
-1800.0
 31
0.0
  0
MTEXT
  5
9E
100
AcDbEntity
100
AcDbMText
  8
RX_SOP_N
 62
256
370
-1
  6
ByLayer
 10
-500.0
 20
-340.9547579288482666
 30
0.0
 40
30.0
 41
100.0
 71
1
 72
2
  1
RX_SOP_N
  7
normallatin1
 50
0.0
 73
1
 44
1.0
  0
MTEXT
  5
9F
100
AcDbEntity
100
AcDbMText
  8
RX_DATA
 62
256
370
-1
  6
ByLayer
 10
-500.0
 20
59.0452420711516197
 30
0.0
 40
30.0
 41
100.0
 71
1
 72
2
  1
RX_DATA
  7
normallatin1
 50
0.0
 73
1
 44
1.0
  0
MTEXT
  5
A0
100
AcDbEntity
100
AcDbMText
  8
RX_SOF_N
 62
256
370
-1
  6
ByLayer
 10
-500.0
 20
-540.9547579288482666
 30
0.0
 40
30.0
 41
100.0
 71
1
 72
2
  1
RX_SOF_N
  7
normallatin1
 50
0.0
 73
1
 44
1.0
  0
MTEXT
  5
A1
100
AcDbEntity
100
AcDbMText
  8
RX_SRC_RDY_N
 62
256
370
-1
  6
ByLayer
 10
-500.0
 20
-140.9547579288482666
 30
0.0
 40
30.0
 41
100.0
 71
1
 72
2
  1
RX_SRC_RDY_N
  7
normallatin1
 50
0.0
 73
1
 44
1.0
  0
MTEXT
  5
A2
100
AcDbEntity
100
AcDbMText
  8
RX_EOF_N
 62
256
370
-1
  6
ByLayer
 10
-500.0
 20
-640.9547579288482666
 30
0.0
 40
30.0
 41
100.0
 71
1
 72
2
  1
RX_EOF_N
  7
normallatin1
 50
0.0
 73
1
 44
1.0
  0
MTEXT
  5
A3
100
AcDbEntity
100
AcDbMText
  8
RX_REM
 62
256
370
-1
  6
ByLayer
 10
-500.0
 20
-40.9547579288482666
 30
0.0
 40
30.0
 41
100.0
 71
1
 72
2
  1
RX_REM
  7
normallatin1
 50
0.0
 73
1
 44
1.0
  0
LINE
  5
A4
100
AcDbEntity
100
AcDbLine
  8
CLK
 62
256
370
-1
  6
ByLayer
 10
-500.0
 20
900.0
 30
0.0
 11
0.0
 21
900.0
 31
0.0
  0
LINE
  5
A5
100
AcDbEntity
100
AcDbLine
  8
RESET
 62
256
370
-1
  6
ByLayer
 10
-500.0
 20
800.0
 30
0.0
 11
0.0
 21
800.0
 31
0.0
  0
MTEXT
  5
A6
100
AcDbEntity
100
AcDbMText
  8
RESET
 62
256
370
-1
  6
ByLayer
 10
-500.0
 20
859.0452420711516197
 30
0.0
 40
30.0
 41
100.0
 71
1
 72
2
  1
RESET
  7
normallatin1
 50
0.0
 73
1
 44
1.0
  0
MTEXT
  5
A7
100
AcDbEntity
100
AcDbMText
  8
CLK
 62
256
370
-1
  6
ByLayer
 10
-500.0
 20
959.0452420711516197
 30
0.0
 40
30.0
 41
100.0
 71
1
 72
2
  1
CLK
  7
normallatin1
 50
0.0
 73
1
 44
1.0
  0
LINE
  5
A8
100
AcDbEntity
100
AcDbLine
  8
0
 62
256
370
-1
  6
ByLayer
 10
800.0
 20
1400.0
 30
0.0
 11
1000.0
 21
1400.0
 31
0.0
  0
LINE
  5
A9
100
AcDbEntity
100
AcDbLine
  8
0
 62
256
370
-1
  6
ByLayer
 10
1000.0
 20
1150.0
 30
0.0
 11
800.0
 21
1150.0
 31
0.0
  0
LINE
  5
AA
100
AcDbEntity
100
AcDbLine
  8
0
 62
256
370
-1
  6
ByLayer
 10
800.0
 20
1150.0
 30
0.0
 11
800.0
 21
1400.0
 31
0.0
  0
LINE
  5
AB
100
AcDbEntity
100
AcDbLine
  8
0
 62
256
370
-1
  6
ByLayer
 10
1000.0
 20
1400.0
 30
0.0
 11
1000.0
 21
1150.0
 31
0.0
  0
MTEXT
  5
AC
100
AcDbEntity
100
AcDbMText
  8
part_num
 62
256
370
-1
  6
ByLayer
 10
1020.0
 20
1350.0000033333330975
 30
0.0
 40
30.0
 41
100.0
 71
1
 72
2
  1
part_num
  7
normallatin1
 50
0.0
 73
1
 44
1.0
  0
LINE
  5
AD
100
AcDbEntity
100
AcDbLine
  8
0
 62
256
370
-1
  6
ByLayer
 10
800.0
 20
650.0
 30
0.0
 11
1000.0
 21
650.0
 31
0.0
  0
LINE
  5
AE
100
AcDbEntity
100
AcDbLine
  8
0
 62
256
370
-1
  6
ByLayer
 10
1000.0
 20
650.0
 30
0.0
 11
1000.0
 21
450.0
 31
0.0
  0
LINE
  5
AF
100
AcDbEntity
100
AcDbLine
  8
0
 62
256
370
-1
  6
ByLayer
 10
1000.0
 20
450.0
 30
0.0
 11
800.0
 21
450.0
 31
0.0
  0
LINE
  5
B0
100
AcDbEntity
100
AcDbLine
  8
0
 62
256
370
-1
  6
ByLayer
 10
800.0
 20
450.0
 30
0.0
 11
800.0
 21
650.0
 31
0.0
  0
MTEXT
  5
B1
100
AcDbEntity
100
AcDbMText
  8
cut_word_num
 62
256
370
-1
  6
ByLayer
 10
1020.0
 20
600.0000033333335523
 30
0.0
 40
30.0
 41
100.0
 71
1
 72
2
  1
cut_word_num
  7
normallatin1
 50
0.0
 73
1
 44
1.0
  0
LINE
  5
B2
100
AcDbEntity
100
AcDbLine
  8
0
 62
256
370
-1
  6
ByLayer
 10
5500.0
 20
900.0
 30
0.0
 11
5000.0
 21
900.0
 31
0.0
  0
MTEXT
  5
B3
100
AcDbEntity
100
AcDbMText
  8
0
 62
256
370
-1
  6
ByLayer
 10
5500.0
 20
959.0452420711516197
 30
0.0
 40
30.0
 41
100.0
 71
3
 72
2
  1
EXTRACTED_DATA
  7
normallatin1
 50
360.0
 73
1
 44
1.0
  0
LINE
  5
B4
100
AcDbEntity
100
AcDbLine
  8
0
 62
256
370
-1
  6
ByLayer
 10
5500.0
 20
0.0
 30
0.0
 11
5000.0
 21
0.0000000000001137
 31
0.0
  0
LINE
  5
B5
100
AcDbEntity
100
AcDbLine
  8
0
 62
256
370
-1
  6
ByLayer
 10
5500.0
 20
-100.0
 30
0.0
 11
5000.0
 21
-99.9999999999997726
 31
0.0
  0
MTEXT
  5
B6
100
AcDbEntity
100
AcDbMText
  8
0
 62
256
370
-1
  6
ByLayer
 10
5500.0
 20
59.0452420711516197
 30
0.0
 40
30.0
 41
100.0
 71
3
 72
2
  1
TX_DATA
  7
normallatin1
 50
360.0
 73
1
 44
1.0
  0
MTEXT
  5
B7
100
AcDbEntity
100
AcDbMText
  8
0
 62
256
370
-1
  6
ByLayer
 10
5500.0
 20
-40.9547579288483803
 30
0.0
 40
30.0
 41
100.0
 71
3
 72
2
  1
TX_REM
  7
normallatin1
 50
360.0
 73
1
 44
1.0
  0
MTEXT
  5
B8
100
AcDbEntity
100
AcDbMText
  8
0
 62
256
370
-1
  6
ByLayer
 10
5500.0
 20
-440.9547579288482666
 30
0.0
 40
30.0
 41
100.0
 71
3
 72
2
  1
TX_EOP_N
  7
normallatin1
 50
360.0
 73
1
 44
1.0
  0
MTEXT
  5
B9
100
AcDbEntity
100
AcDbMText
  8
0
 62
256
370
-1
  6
ByLayer
 10
5500.0
 20
-640.9547579288482666
 30
0.0
 40
30.0
 41
100.0
 71
3
 72
2
  1
TX_EOF_N
  7
normallatin1
 50
360.0
 73
1
 44
1.0
  0
MTEXT
  5
BA
100
AcDbEntity
100
AcDbMText
  8
TX_SRC_RDY_N
 62
256
370
-1
  6
ByLayer
 10
5500.0
 20
-140.9547579288482666
 30
0.0
 40
30.0
 41
100.0
 71
3
 72
2
  1
TX_SRC_RDY_N
  7
normallatin1
 50
360.0
 73
1
 44
1.0
  0
LINE
  5
BB
100
AcDbEntity
100
AcDbLine
  8
TX_DST_RDY_N
 62
256
370
-1
  6
ByLayer
 10
5500.0
 20
-300.0
 30
0.0
 11
5000.0
 21
-300.0
 31
0.0
  0
MTEXT
  5
BC
100
AcDbEntity
100
AcDbMText
  8
TX_DST_RDY_N
 62
256
370
-1
  6
ByLayer
 10
5500.0
 20
-240.9547579288482666
 30
0.0
 40
30.0
 41
100.0
 71
3
 72
2
  1
TX_DST_RDY_N
  7
normallatin1
 50
360.0
 73
1
 44
1.0
  0
LINE
  5
BD
100
AcDbEntity
100
AcDbLine
  8
send_data
 62
256
370
-1
  6
ByLayer
 10
5000.0
 20
0.0
 30
0.0
 11
4950.0
 21
0.0
 31
0.0
  0
LINE
  5
BE
100
AcDbEntity
100
AcDbLine
  8
TX_DST_RDY_N
 62
256
370
-1
  6
ByLayer
 10
5000.0
 20
-300.0
 30
0.0
 11
4950.0
 21
-300.0
 31
0.0
  0
LINE
  5
BF
100
AcDbEntity
100
AcDbLine
  8
0
 62
256
370
-1
  6
ByLayer
 10
800.0
 20
-900.0
 30
0.0
 11
1000.0
 21
-900.0
 31
0.0
  0
LINE
  5
C0
100
AcDbEntity
100
AcDbLine
  8
0
 62
256
370
-1
  6
ByLayer
 10
1000.0
 20
-900.0
 30
0.0
 11
1000.0
 21
-1100.0
 31
0.0
  0
LINE
  5
C1
100
AcDbEntity
100
AcDbLine
  8
0
 62
256
370
-1
  6
ByLayer
 10
1000.0
 20
-1100.0
 30
0.0
 11
800.0
 21
-1100.0
 31
0.0
  0
LINE
  5
C2
100
AcDbEntity
100
AcDbLine
  8
0
 62
256
370
-1
  6
ByLayer
 10
800.0
 20
-1100.0
 30
0.0
 11
800.0
 21
-900.0
 31
0.0
  0
MTEXT
  5
C3
100
AcDbEntity
100
AcDbMText
  8
0
 62
256
370
-1
  6
ByLayer
 10
843.8334144652062605
 20
-940.0177668780104341
 30
0.0
 40
30.0
 41
100.0
 71
1
 72
2
  1
eof_n\P_reg
  7
normallatin1
 50
0.0
 73
1
 44
1.0
  0
MTEXT
  5
C4
100
AcDbEntity
100
AcDbMText
  8
eof_n
 62
256
370
-1
  6
ByLayer
 10
1020.0
 20
-949.9999966666666751
 30
0.0
 40
30.0
 41
100.0
 71
1
 72
2
  1
eof_n
  7
normallatin1
 50
0.0
 73
1
 44
1.0
  0
LINE
  5
C5
100
AcDbEntity
100
AcDbLine
  8
RX_SRC_RDY_N
 62
256
370
-1
  6
ByLayer
 10
-500.0
 20
-200.0
 30
0.0
 11
100.0
 21
-200.0
 31
0.0
  0
MTEXT
  5
C6
100
AcDbEntity
100
AcDbMText
  8
0
 62
256
370
-1
  6
ByLayer
 10
852.616941379869786
 20
1327.7759677682229267
 30
0.0
 40
30.0
 41
100.0
 71
1
 72
2
  1
part\P_cnt
  7
normallatin1
 50
0.0
 73
1
 44
1.0
  0
LINE
  5
C7
100
AcDbEntity
100
AcDbLine
  8
CLK
 62
256
370
-1
  6
ByLayer
 10
800.0
 20
1380.0
 30
0.0
 11
700.0
 21
1380.0
 31
0.0
  0
INSERT
  5
C8
100
AcDbEntity
100
AcDbBlockReference
  8
CLK
 62
256
370
-1
  6
ByLayer
  2
FORK_POINT
 10
700.0
 20
900.0
 30
0.0
 44
1.0
 45
1.0
  0
LINE
  5
C9
100
AcDbEntity
100
AcDbLine
  8
CLK
 62
256
370
-1
  6
ByLayer
 10
800.0
 20
630.0
 30
0.0
 11
700.0
 21
630.0
 31
0.0
  0
LINE
  5
CA
100
AcDbEntity
100
AcDbLine
  8
CLK
 62
256
370
-1
  6
ByLayer
 10
800.0
 20
-920.0
 30
0.0
 11
700.0
 21
-920.0
 31
0.0
  0
INSERT
  5
CB
100
AcDbEntity
100
AcDbBlockReference
  8
CLK
 62
256
370
-1
  6
ByLayer
  2
FORK_POINT
 10
700.0
 20
630.0
 30
0.0
 44
1.0
 45
1.0
  0
INSERT
  5
CC
100
AcDbEntity
100
AcDbBlockReference
  8
CLK
 62
256
370
-1
  6
ByLayer
  2
FORK_POINT
 10
700.0
 20
-920.0
 30
0.0
 44
1.0
 45
1.0
  0
LINE
  5
CD
100
AcDbEntity
100
AcDbLine
  8
RESET
 62
256
370
-1
  6
ByLayer
 10
800.0
 20
1330.0
 30
0.0
 11
660.0
 21
1330.0
 31
0.0
  0
LINE
  5
CE
100
AcDbEntity
100
AcDbLine
  8
RESET
 62
256
370
-1
  6
ByLayer
 10
800.0
 20
580.0
 30
0.0
 11
660.0
 21
580.0
 31
0.0
  0
LINE
  5
CF
100
AcDbEntity
100
AcDbLine
  8
RESET
 62
256
370
-1
  6
ByLayer
 10
800.0
 20
-970.0
 30
0.0
 11
660.0
 21
-969.9999999999995453
 31
0.0
  0
INSERT
  5
D0
100
AcDbEntity
100
AcDbBlockReference
  8
RESET
 62
256
370
-1
  6
ByLayer
  2
FORK_POINT
 10
660.0
 20
-969.9999999999995453
 30
0.0
 44
1.0
 45
1.0
  0
INSERT
  5
D1
100
AcDbEntity
100
AcDbBlockReference
  8
RESET
 62
256
370
-1
  6
ByLayer
  2
FORK_POINT
 10
660.0
 20
580.0
 30
0.0
 44
1.0
 45
1.0
  0
LINE
  5
D2
100
AcDbEntity
100
AcDbLine
  8
RX_EOP_N
 62
256
370
-1
  6
ByLayer
 10
50.0
 20
-500.0
 30
0.0
 11
50.0
 21
1280.0
 31
0.0
  0
LINE
  5
D3
100
AcDbEntity
100
AcDbLine
  8
RX_EOF_N
 62
256
370
-1
  6
ByLayer
 10
800.0
 20
1230.0
 30
0.0
 11
150.0
 21
1230.0
 31
0.0
  0
MTEXT
  5
D4
100
AcDbEntity
100
AcDbMText
  8
RX_EOP_N
 62
256
370
-1
  6
ByLayer
 10
-500.0
 20
-440.9547579288482666
 30
0.0
 40
30.0
 41
100.0
 71
1
 72
2
  1
RX_EOP_N
  7
normallatin1
 50
0.0
 73
1
 44
1.0
  0
LINE
  5
D5
100
AcDbEntity
100
AcDbLine
  8
RX_EOP_N
 62
256
370
-1
  6
ByLayer
 10
800.0
 20
1280.0
 30
0.0
 11
50.0
 21
1280.0
 31
0.0
  0
LINE
  5
D6
100
AcDbEntity
100
AcDbLine
  8
cnt_en
 62
256
370
-1
  6
ByLayer
 10
800.0
 20
1180.0
 30
0.0
 11
620.0
 21
1180.0
 31
0.0
  0
LINE
  5
D7
100
AcDbEntity
100
AcDbLine
  8
cnt_en
 62
256
370
-1
  6
ByLayer
 10
800.0
 20
480.0
 30
0.0
 11
620.0
 21
480.0
 31
0.0
  0
INSERT
  5
D8
100
AcDbEntity
100
AcDbBlockReference
  8
cnt_en
 62
256
370
-1
  6
ByLayer
  2
FORK_POINT
 10
620.0
 20
480.0
 30
0.0
 44
1.0
 45
1.0
  0
INSERT
  5
D9
100
AcDbEntity
100
AcDbBlockReference
  8
RX_EOP_N
 62
256
370
-1
  6
ByLayer
  2
FORK_POINT
 10
50.0
 20
530.0
 30
0.0
 44
1.0
 45
1.0
  0
LINE
  5
DA
100
AcDbEntity
100
AcDbLine
  8
RX_EOP_N
 62
256
370
-1
  6
ByLayer
 10
800.0
 20
530.0
 30
0.0
 11
50.0
 21
530.0
 31
0.0
  0
MTEXT
  5
DB
100
AcDbEntity
100
AcDbMText
  8
0
 62
256
370
-1
  6
ByLayer
 10
846.6926354660736251
 20
618.5598961245914325
 30
0.0
 40
30.0
 41
100.0
 71
1
 72
2
  1
cut\P_word\P_cnt
  7
normallatin1
 50
0.0
 73
1
 44
1.0
  0
LINE
  5
DC
100
AcDbEntity
100
AcDbLine
  8
cnt_en
 62
256
370
-1
  6
ByLayer
 10
800.0
 20
-1070.0
 30
0.0
 11
620.0
 21
-1070.0
 31
0.0
  0
INSERT
  5
DD
100
AcDbEntity
100
AcDbBlockReference
  8
cnt_en
 62
256
370
-1
  6
ByLayer
  2
FORK_POINT
 10
620.0
 20
-1070.0
 30
0.0
 44
1.0
 45
1.0
  0
LINE
  5
DE
100
AcDbEntity
100
AcDbLine
  8
RX_EOF_N
 62
256
370
-1
  6
ByLayer
 10
800.0
 20
-1020.0
 30
0.0
 11
150.0
 21
-1020.0
 31
0.0
  0
LINE
  5
DF
100
AcDbEntity
100
AcDbLine
  8
RX_EOF_N
 62
256
370
-1
  6
ByLayer
 10
150.0
 20
-1020.0
 30
0.0
 11
150.0
 21
1230.0
 31
0.0
  0
INSERT
  5
E0
100
AcDbEntity
100
AcDbBlockReference
  8
RX_EOF_N
 62
256
370
-1
  6
ByLayer
  2
FORK_POINT
 10
150.0
 20
-700.0
 30
0.0
 44
1.0
 45
1.0
  0
LINE
  5
E1
100
AcDbEntity
100
AcDbLine
  8
0
 62
256
370
-1
  6
ByLayer
 10
1800.0
 20
1400.0
 30
0.0
 11
2000.0
 21
1400.0
 31
0.0
  0
LINE
  5
E2
100
AcDbEntity
100
AcDbLine
  8
0
 62
256
370
-1
  6
ByLayer
 10
2000.0
 20
1150.0
 30
0.0
 11
1800.0
 21
1150.0
 31
0.0
  0
LINE
  5
E3
100
AcDbEntity
100
AcDbLine
  8
0
 62
256
370
-1
  6
ByLayer
 10
1800.0
 20
1150.0
 30
0.0
 11
1800.0
 21
1400.0
 31
0.0
  0
LINE
  5
E4
100
AcDbEntity
100
AcDbLine
  8
0
 62
256
370
-1
  6
ByLayer
 10
2000.0
 20
1400.0
 30
0.0
 11
2000.0
 21
1150.0
 31
0.0
  0
MTEXT
  5
E5
100
AcDbEntity
100
AcDbMText
  8
data
 62
256
370
-1
  6
ByLayer
 10
2020.0
 20
1330.0000033333333249
 30
0.0
 40
30.0
 41
100.0
 71
1
 72
2
  1
data
  7
normallatin1
 50
0.0
 73
1
 44
1.0
  0
MTEXT
  5
E6
100
AcDbEntity
100
AcDbMText
  8
0
 62
256
370
-1
  6
ByLayer
 10
1826.5503733758205271
 20
1332.7977738906188279
 30
0.0
 40
30.0
 41
100.0
 71
1
 72
2
  1
rx_data\P_reg
  7
normallatin1
 50
0.0
 73
1
 44
1.0
  0
LINE
  5
E7
100
AcDbEntity
100
AcDbLine
  8
0
 62
256
370
-1
  6
ByLayer
 10
1800.0
 20
650.0
 30
0.0
 11
2000.0
 21
650.0
 31
0.0
  0
LINE
  5
E8
100
AcDbEntity
100
AcDbLine
  8
0
 62
256
370
-1
  6
ByLayer
 10
2000.0
 20
650.0
 30
0.0
 11
2000.0
 21
450.0
 31
0.0
  0
LINE
  5
E9
100
AcDbEntity
100
AcDbLine
  8
0
 62
256
370
-1
  6
ByLayer
 10
2000.0
 20
450.0
 30
0.0
 11
1800.0
 21
450.0
 31
0.0
  0
LINE
  5
EA
100
AcDbEntity
100
AcDbLine
  8
0
 62
256
370
-1
  6
ByLayer
 10
1800.0
 20
450.0
 30
0.0
 11
1800.0
 21
650.0
 31
0.0
  0
MTEXT
  5
EB
100
AcDbEntity
100
AcDbMText
  8
0
 62
256
370
-1
  6
ByLayer
 10
1843.8334144652062605
 20
609.9822331219895659
 30
0.0
 40
30.0
 41
100.0
 71
1
 72
2
  1
ext\P_addr\P_cnt
  7
normallatin1
 50
0.0
 73
1
 44
1.0
  0
MTEXT
  5
EC
100
AcDbEntity
100
AcDbMText
  8
ext_addr_index
 62
256
370
-1
  6
ByLayer
 10
2020.0
 20
600.0000033333333249
 30
0.0
 40
30.0
 41
100.0
 71
1
 72
2
  1
ext_addr_index
  7
normallatin1
 50
0.0
 73
1
 44
1.0
  0
LINE
  5
ED
100
AcDbEntity
100
AcDbLine
  8
0
 62
256
370
-1
  6
ByLayer
 10
800.0
 20
-100.0
 30
0.0
 11
1000.0
 21
-100.0
 31
0.0
  0
LINE
  5
EE
100
AcDbEntity
100
AcDbLine
  8
0
 62
256
370
-1
  6
ByLayer
 10
1000.0
 20
-350.0
 30
0.0
 11
800.0
 21
-350.0
 31
0.0
  0
LINE
  5
EF
100
AcDbEntity
100
AcDbLine
  8
0
 62
256
370
-1
  6
ByLayer
 10
800.0
 20
-350.0
 30
0.0
 11
800.0
 21
-100.0
 31
0.0
  0
LINE
  5
F0
100
AcDbEntity
100
AcDbLine
  8
0
 62
256
370
-1
  6
ByLayer
 10
1000.0
 20
-100.0
 30
0.0
 11
1000.0
 21
-350.0
 31
0.0
  0
LINE
  5
F1
100
AcDbEntity
100
AcDbLine
  8
src_rdy_n
 62
256
370
-1
  6
ByLayer
 10
1260.0
 20
-200.0
 30
0.0
 11
1000.0
 21
-200.0
 31
0.0
  0
MTEXT
  5
F2
100
AcDbEntity
100
AcDbMText
  8
src_rdy_n
 62
256
370
-1
  6
ByLayer
 10
1020.0
 20
-149.9999966666664477
 30
0.0
 40
30.0
 41
100.0
 71
1
 72
2
  1
src_rdy_n
  7
normallatin1
 50
0.0
 73
1
 44
1.0
  0
LINE
  5
F3
100
AcDbEntity
100
AcDbLine
  8
0
 62
256
370
-1
  6
ByLayer
 10
800.0
 20
270.0
 30
0.0
 11
1000.0
 21
270.0
 31
0.0
  0
LINE
  5
F4
100
AcDbEntity
100
AcDbLine
  8
0
 62
256
370
-1
  6
ByLayer
 10
1000.0
 20
270.0
 30
0.0
 11
1000.0
 21
70.0
 31
0.0
  0
LINE
  5
F5
100
AcDbEntity
100
AcDbLine
  8
0
 62
256
370
-1
  6
ByLayer
 10
1000.0
 20
70.0
 30
0.0
 11
800.0
 21
70.0
 31
0.0
  0
LINE
  5
F6
100
AcDbEntity
100
AcDbLine
  8
0
 62
256
370
-1
  6
ByLayer
 10
800.0
 20
70.0
 30
0.0
 11
800.0
 21
270.0
 31
0.0
  0
MTEXT
  5
F7
100
AcDbEntity
100
AcDbMText
  8
word_num
 62
256
370
-1
  6
ByLayer
 10
1020.0
 20
220.0000033333333249
 30
0.0
 40
30.0
 41
100.0
 71
1
 72
2
  1
word_num
  7
normallatin1
 50
0.0
 73
1
 44
1.0
  0
LINE
  5
F8
100
AcDbEntity
100
AcDbLine
  8
CLK
 62
256
370
-1
  6
ByLayer
 10
800.0
 20
250.0
 30
0.0
 11
700.0
 21
250.0
 31
0.0
  0
INSERT
  5
F9
100
AcDbEntity
100
AcDbBlockReference
  8
CLK
 62
256
370
-1
  6
ByLayer
  2
FORK_POINT
 10
700.0
 20
250.0
 30
0.0
 44
1.0
 45
1.0
  0
LINE
  5
FA
100
AcDbEntity
100
AcDbLine
  8
RESET
 62
256
370
-1
  6
ByLayer
 10
800.0
 20
200.0
 30
0.0
 11
660.0
 21
200.0
 31
0.0
  0
INSERT
  5
FB
100
AcDbEntity
100
AcDbBlockReference
  8
RESET
 62
256
370
-1
  6
ByLayer
  2
FORK_POINT
 10
660.0
 20
200.0
 30
0.0
 44
1.0
 45
1.0
  0
MTEXT
  5
FC
100
AcDbEntity
100
AcDbMText
  8
0
 62
256
370
-1
  6
ByLayer
 10
846.6926354660727156
 20
212.8269071167862876
 30
0.0
 40
30.0
 41
100.0
 71
1
 72
2
  1
word\P_cnt
  7
normallatin1
 50
0.0
 73
1
 44
1.0
  0
LINE
  5
FD
100
AcDbEntity
100
AcDbLine
  8
cnt_en
 62
256
370
-1
  6
ByLayer
 10
800.0
 20
100.0
 30
0.0
 11
620.0
 21
100.0
 31
0.0
  0
INSERT
  5
FE
100
AcDbEntity
100
AcDbBlockReference
  8
cnt_en
 62
256
370
-1
  6
ByLayer
  2
FORK_POINT
 10
620.0
 20
100.0
 30
0.0
 44
1.0
 45
1.0
  0
INSERT
  5
FF
100
AcDbEntity
100
AcDbBlockReference
  8
RX_EOP_N
 62
256
370
-1
  6
ByLayer
  2
FORK_POINT
 10
50.0
 20
150.0
 30
0.0
 44
1.0
 45
1.0
  0
INSERT
  5
100
100
AcDbEntity
100
AcDbBlockReference
  8
RESET
 62
256
370
-1
  6
ByLayer
  2
FORK_POINT
 10
660.0
 20
800.0
 30
0.0
 44
1.0
 45
1.0
  0
LINE
  5
101
100
AcDbEntity
100
AcDbLine
  8
CLK
 62
256
370
-1
  6
ByLayer
 10
800.0
 20
-120.0
 30
0.0
 11
700.0
 21
-120.0
 31
0.0
  0
LINE
  5
102
100
AcDbEntity
100
AcDbLine
  8
RESET
 62
256
370
-1
  6
ByLayer
 10
800.0
 20
-170.0
 30
0.0
 11
660.0
 21
-170.0
 31
0.0
  0
INSERT
  5
103
100
AcDbEntity
100
AcDbBlockReference
  8
RESET
 62
256
370
-1
  6
ByLayer
  2
FORK_POINT
 10
660.0
 20
-170.0
 30
0.0
 44
1.0
 45
1.0
  0
INSERT
  5
104
100
AcDbEntity
100
AcDbBlockReference
  8
CLK
 62
256
370
-1
  6
ByLayer
  2
FORK_POINT
 10
700.0
 20
-120.0
 30
0.0
 44
1.0
 45
1.0
  0
INSERT
  5
105
100
AcDbEntity
100
AcDbBlockReference
  8
RX_SRC_RDY_N
 62
256
370
-1
  6
ByLayer
  2
FORK_POINT
 10
100.0
 20
-220.0
 30
0.0
 44
1.0
 45
1.0
  0
INSERT
  5
106
100
AcDbEntity
100
AcDbBlockReference
  8
cnt_en
 62
256
370
-1
  6
ByLayer
  2
FORK_POINT
 10
620.0
 20
-1200.0
 30
0.0
 44
1.0
 45
1.0
  0
LINE
  5
107
100
AcDbEntity
100
AcDbLine
  8
TX_DST_RDY_N
 62
256
370
-1
  6
ByLayer
 10
4950.0
 20
-300.0
 30
0.0
 11
4950.0
 21
-1750.0
 31
0.0
  0
INSERT
  5
108
100
AcDbEntity
100
AcDbBlockReference
  8
0
 62
256
370
-1
  6
ByLayer
  2
OR
 10
210.0
 20
-1650.0
 30
0.0
 44
1.0
 45
1.0
  0
LINE
  5
109
100
AcDbEntity
100
AcDbLine
  8
TX_DST_RDY_N
 62
256
370
-1
  6
ByLayer
 10
134.7358628995389154
 20
-1630.0
 30
0.0
 11
50.0
 21
-1630.0
 31
0.0
  0
LINE
  5
10A
100
AcDbEntity
100
AcDbLine
  8
TX_DST_RDY_N
 62
256
370
-1
  6
ByLayer
 10
50.0
 20
-1630.0
 30
0.0
 11
50.0
 21
-1750.0
 31
0.0
  0
LINE
  5
10B
100
AcDbEntity
100
AcDbLine
  8
TX_DST_RDY_N
 62
256
370
-1
  6
ByLayer
 10
4950.0
 20
-1750.0
 30
0.0
 11
50.0
 21
-1750.0
 31
0.0
  0
LINE
  5
10C
100
AcDbEntity
100
AcDbLine
  8
dst_rdy_n
 62
256
370
-1
  6
ByLayer
 10
90.0
 20
-1710.0
 30
0.0
 11
90.0
 21
-1670.0
 31
0.0
  0
LINE
  5
10D
100
AcDbEntity
100
AcDbLine
  8
dst_rdy_n
 62
256
370
-1
  6
ByLayer
 10
134.7358628995389154
 20
-1670.0
 30
0.0
 11
90.0
 21
-1670.0
 31
0.0
  0
MTEXT
  5
10E
100
AcDbEntity
100
AcDbMText
  8
RX_DST_RDY_N
 62
256
370
-1
  6
ByLayer
 10
-500.0
 20
-240.9547579288482666
 30
0.0
 40
30.0
 41
100.0
 71
1
 72
2
  1
RX_DST_RDY_N
  7
normallatin1
 50
0.0
 73
1
 44
1.0
  0
MTEXT
  5
10F
100
AcDbEntity
100
AcDbMText
  8
cnt_en
 62
256
370
-1
  6
ByLayer
 10
400.0
 20
-1149.9999966666666751
 30
0.0
 40
30.0
 41
100.0
 71
1
 72
2
  1
cnt_en
  7
normallatin1
 50
0.0
 73
1
 44
1.0
  0
INSERT
  5
110
100
AcDbEntity
100
AcDbBlockReference
  8
0
 62
256
370
-1
  6
ByLayer
  2
NOR
 10
380.0
 20
-1200.0
 30
0.0
  0
LINE
  5
111
100
AcDbEntity
100
AcDbLine
  8
RX_DST_RDY_N
 62
256
370
-1
  6
ByLayer
 10
301.3967211436238358
 20
-1175.0
 30
0.0
 11
250.0
 21
-1175.0
 31
0.0
  0
INSERT
  5
112
100
AcDbEntity
100
AcDbBlockReference
  8
RX_DST_RDY_N
 62
256
370
-1
  6
ByLayer
  2
FORK_POINT
 10
250.0
 20
-1175.0
 30
0.0
 44
1.0
 45
1.0
  0
LINE
  5
113
100
AcDbEntity
100
AcDbLine
  8
RX_SRC_RDY_N
 62
256
370
-1
  6
ByLayer
 10
301.3967211436238358
 20
-1225.0
 30
0.0
 11
100.0
 21
-1225.0
 31
0.0
  0
LINE
  5
114
100
AcDbEntity
100
AcDbLine
  8
RX_SRC_RDY_N
 62
256
370
-1
  6
ByLayer
 10
100.0
 20
-200.0
 30
0.0
 11
100.0
 21
-1225.0
 31
0.0
  0
LINE
  5
115
100
AcDbEntity
100
AcDbLine
  8
RX_DST_RDY_N
 62
256
370
-1
  6
ByLayer
 10
210.0
 20
-1650.0
 30
0.0
 11
250.0
 21
-1650.0
 31
0.0
  0
LINE
  5
116
100
AcDbEntity
100
AcDbLine
  8
RX_DST_RDY_N
 62
256
370
-1
  6
ByLayer
 10
250.0
 20
-1650.0
 30
0.0
 11
250.0
 21
-300.0
 31
0.0
  0
LINE
  5
117
100
AcDbEntity
100
AcDbLine
  8
RX_DST_RDY_N
 62
256
370
-1
  6
ByLayer
 10
-500.0
 20
-300.0
 30
0.0
 11
250.0
 21
-300.0
 31
0.0
  0
MTEXT
  5
118
100
AcDbEntity
100
AcDbMText
  8
0
 62
256
370
-1
  6
ByLayer
 10
825.5344000596523983
 20
-165.6363870457854546
 30
0.0
 40
30.0
 41
100.0
 71
1
 72
2
  1
src_rdy\P_n_reg
  7
normallatin1
 50
0.0
 73
1
 44
1.0
  0
LINE
  5
119
100
AcDbEntity
100
AcDbLine
  8
dst_rdy_n
 62
256
370
-1
  6
ByLayer
 10
580.0
 20
-1710.0
 30
0.0
 11
580.0
 21
-320.0
 31
0.0
  0
INSERT
  5
11A
100
AcDbEntity
100
AcDbBlockReference
  8
dst_rdy_n
 62
256
370
-1
  6
ByLayer
  2
FORK_POINT
 10
580.0
 20
-1710.0
 30
0.0
 44
1.0
 45
1.0
  0
LINE
  5
11B
100
AcDbEntity
100
AcDbLine
  8
dst_rdy_n
 62
256
370
-1
  6
ByLayer
 10
800.0
 20
-320.0
 30
0.0
 11
580.0
 21
-320.0
 31
0.0
  0
LINE
  5
11C
100
AcDbEntity
100
AcDbLine
  8
TX_DST_RDY_N
 62
256
370
-1
  6
ByLayer
 10
540.0
 20
-1750.0
 30
0.0
 11
540.0
 21
-270.0
 31
0.0
  0
LINE
  5
11D
100
AcDbEntity
100
AcDbLine
  8
TX_DST_RDY_N
 62
256
370
-1
  6
ByLayer
 10
800.0
 20
-270.0
 30
0.0
 11
540.0
 21
-270.0
 31
0.0
  0
INSERT
  5
11E
100
AcDbEntity
100
AcDbBlockReference
  8
TX_DST_RDY_N
 62
256
370
-1
  6
ByLayer
  2
FORK_POINT
 10
540.0
 20
-1750.0
 30
0.0
 44
1.0
 45
1.0
  0
MTEXT
  5
11F
100
AcDbEntity
100
AcDbMText
  8
0
 62
256
370
-1
  6
ByLayer
 10
2200.0
 20
1900.0
 30
0.0
 40
80.0
 41
100.0
 71
1
 72
2
  1
FL_CUTTER
  7
normallatin1
 50
0.0
 73
1
 44
1.0
  0
MTEXT
  5
120
100
AcDbEntity
100
AcDbMText
  8
0
 62
256
370
-1
  6
ByLayer
 10
1843.8334144652062605
 20
-140.0177668780104341
 30
0.0
 40
30.0
 41
100.0
 71
1
 72
2
  1
eop_n\P_reg
  7
normallatin1
 50
0.0
 73
1
 44
1.0
  0
LINE
  5
121
100
AcDbEntity
100
AcDbLine
  8
0
 62
256
370
-1
  6
ByLayer
 10
1800.0
 20
-100.0
 30
0.0
 11
2000.0
 21
-100.0
 31
0.0
  0
LINE
  5
122
100
AcDbEntity
100
AcDbLine
  8
0
 62
256
370
-1
  6
ByLayer
 10
2000.0
 20
-100.0
 30
0.0
 11
2000.0
 21
-300.0
 31
0.0
  0
LINE
  5
123
100
AcDbEntity
100
AcDbLine
  8
0
 62
256
370
-1
  6
ByLayer
 10
2000.0
 20
-300.0
 30
0.0
 11
1800.0
 21
-300.0
 31
0.0
  0
LINE
  5
124
100
AcDbEntity
100
AcDbLine
  8
0
 62
256
370
-1
  6
ByLayer
 10
1800.0
 20
-300.0
 30
0.0
 11
1800.0
 21
-100.0
 31
0.0
  0
MTEXT
  5
125
100
AcDbEntity
100
AcDbMText
  8
eop_n
 62
256
370
-1
  6
ByLayer
 10
2020.0
 20
-149.9999966666666751
 30
0.0
 40
30.0
 41
100.0
 71
1
 72
2
  1
eop_n
  7
normallatin1
 50
0.0
 73
1
 44
1.0
  0
LINE
  5
126
100
AcDbEntity
100
AcDbLine
  8
CLK
 62
256
370
-1
  6
ByLayer
 10
1800.0
 20
1350.0
 30
0.0
 11
1760.0
 21
1350.0
 31
0.0
  0
LINE
  5
127
100
AcDbEntity
100
AcDbLine
  8
RESET
 62
256
370
-1
  6
ByLayer
 10
1800.0
 20
1300.0
 30
0.0
 11
1720.0
 21
1300.0
 31
0.0
  0
INSERT
  5
128
100
AcDbEntity
100
AcDbBlockReference
  8
RESET
 62
256
370
-1
  6
ByLayer
  2
FORK_POINT
 10
1720.0
 20
800.0
 30
0.0
 44
1.0
 45
1.0
  0
INSERT
  5
129
100
AcDbEntity
100
AcDbBlockReference
  8
CLK
 62
256
370
-1
  6
ByLayer
  2
FORK_POINT
 10
1760.0
 20
900.0
 30
0.0
 44
1.0
 45
1.0
  0
LINE
  5
12A
100
AcDbEntity
100
AcDbLine
  8
cnt_en
 62
256
370
-1
  6
ByLayer
 10
1800.0
 20
1200.0
 30
0.0
 11
1680.0
 21
1200.0
 31
0.0
  0
LINE
  5
12B
100
AcDbEntity
100
AcDbLine
  8
RX_DATA
 62
256
370
-1
  6
ByLayer
 10
1640.0
 20
1100.0
 30
0.0
 11
1640.0
 21
1250.0
 31
0.0
  0
LINE
  5
12C
100
AcDbEntity
100
AcDbLine
  8
RX_DATA
 62
256
370
-1
  6
ByLayer
 10
200.0
 20
0.0
 30
0.0
 11
200.0
 21
1100.0
 31
0.0
  0
LINE
  5
12D
100
AcDbEntity
100
AcDbLine
  8
RX_DATA
 62
256
370
-1
  6
ByLayer
 10
-500.0
 20
0.0
 30
0.0
 11
200.0
 21
0.0
 31
0.0
  0
LINE
  5
12E
100
AcDbEntity
100
AcDbLine
  8
RX_DATA
 62
256
370
-1
  6
ByLayer
 10
1800.0
 20
1250.0
 30
0.0
 11
1640.0
 21
1250.0
 31
0.0
  0
LINE
  5
12F
100
AcDbEntity
100
AcDbLine
  8
CLK
 62
256
370
-1
  6
ByLayer
 10
1800.0
 20
-120.0
 30
0.0
 11
1760.0
 21
-120.0
 31
0.0
  0
LINE
  5
130
100
AcDbEntity
100
AcDbLine
  8
RESET
 62
256
370
-1
  6
ByLayer
 10
1800.0
 20
-170.0
 30
0.0
 11
1720.0
 21
-169.9999999999997726
 31
0.0
  0
LINE
  5
131
100
AcDbEntity
100
AcDbLine
  8
CLK
 62
256
370
-1
  6
ByLayer
 10
1800.0
 20
630.0
 30
0.0
 11
1760.0
 21
630.0
 31
0.0
  0
LINE
  5
132
100
AcDbEntity
100
AcDbLine
  8
RESET
 62
256
370
-1
  6
ByLayer
 10
1800.0
 20
580.0
 30
0.0
 11
1720.0
 21
580.0
 31
0.0
  0
INSERT
  5
133
100
AcDbEntity
100
AcDbBlockReference
  8
CLK
 62
256
370
-1
  6
ByLayer
  2
FORK_POINT
 10
1760.0
 20
630.0
 30
0.0
 44
1.0
 45
1.0
  0
INSERT
  5
134
100
AcDbEntity
100
AcDbBlockReference
  8
RESET
 62
256
370
-1
  6
ByLayer
  2
FORK_POINT
 10
1720.0
 20
580.0
 30
0.0
 44
1.0
 45
1.0
  0
LINE
  5
135
100
AcDbEntity
100
AcDbLine
  8
cnt_en
 62
256
370
-1
  6
ByLayer
 10
1800.0
 20
480.0
 30
0.0
 11
1680.0
 21
480.0
 31
0.0
  0
INSERT
  5
136
100
AcDbEntity
100
AcDbBlockReference
  8
cnt_en
 62
256
370
-1
  6
ByLayer
  2
FORK_POINT
 10
1680.0
 20
480.0
 30
0.0
 44
1.0
 45
1.0
  0
LINE
  5
137
100
AcDbEntity
100
AcDbLine
  8
ext_en
 62
256
370
-1
  6
ByLayer
 10
1640.0
 20
400.0
 30
0.0
 11
1640.0
 21
400.0
 31
0.0
  0
LINE
  5
138
100
AcDbEntity
100
AcDbLine
  8
ext_en
 62
256
370
-1
  6
ByLayer
 10
1640.0
 20
400.0
 30
0.0
 11
1640.0
 21
530.0
 31
0.0
  0
LINE
  5
139
100
AcDbEntity
100
AcDbLine
  8
ext_en
 62
256
370
-1
  6
ByLayer
 10
1800.0
 20
530.0
 30
0.0
 11
1640.0
 21
530.0
 31
0.0
  0
INSERT
  5
13A
100
AcDbEntity
100
AcDbBlockReference
  8
cnt_en
 62
256
370
-1
  6
ByLayer
  2
FORK_POINT
 10
1680.0
 20
-270.0
 30
0.0
 44
1.0
 45
1.0
  0
LINE
  5
13B
100
AcDbEntity
100
AcDbLine
  8
cnt_en
 62
256
370
-1
  6
ByLayer
 10
1800.0
 20
-270.0
 30
0.0
 11
1680.0
 21
-270.0
 31
0.0
  0
LINE
  5
13C
100
AcDbEntity
100
AcDbLine
  8
RX_EOP_N
 62
256
370
-1
  6
ByLayer
 10
800.0
 20
150.0
 30
0.0
 11
50.0
 21
150.0
 31
0.0
  0
LINE
  5
13D
100
AcDbEntity
100
AcDbLine
  8
RX_EOP_N
 62
256
370
-1
  6
ByLayer
 10
1800.0
 20
-220.0
 30
0.0
 11
1640.0
 21
-220.0
 31
0.0
  0
INSERT
  5
13E
100
AcDbEntity
100
AcDbBlockReference
  8
RX_EOP_N
 62
256
370
-1
  6
ByLayer
  2
FORK_POINT
 10
50.0
 20
-500.0
 30
0.0
 44
1.0
 45
1.0
  0
INSERT
  5
13F
100
AcDbEntity
100
AcDbBlockReference
  8
RESET
 62
256
370
-1
  6
ByLayer
  2
FORK_POINT
 10
3590.0
 20
800.0
 30
0.0
 44
1.0
 45
1.0
  0
INSERT
  5
140
100
AcDbEntity
100
AcDbBlockReference
  8
CLK
 62
256
370
-1
  6
ByLayer
  2
FORK_POINT
 10
3630.0
 20
900.0
 30
0.0
 44
1.0
 45
1.0
  0
LINE
  5
141
100
AcDbEntity
100
AcDbLine
  8
ext_addr_index
 62
256
370
-1
  6
ByLayer
 10
3160.0
 20
550.0
 30
0.0
 11
2000.0
 21
550.0
 31
0.0
  0
LINE
  5
142
100
AcDbEntity
100
AcDbLine
  8
0
 62
256
370
-1
  6
ByLayer
 10
4500.0
 20
1498.78245968614101
 30
0.0
 11
3800.0
 21
1498.78245968614101
 31
0.0
  0
LINE
  5
143
100
AcDbEntity
100
AcDbLine
  8
0
 62
256
370
-1
  6
ByLayer
 10
3800.0
 20
1198.78245968614101
 30
0.0
 11
4500.0
 21
1198.78245968614101
 31
0.0
  0
LINE
  5
144
100
AcDbEntity
100
AcDbLine
  8
0
 62
256
370
-1
  6
ByLayer
 10
3800.0
 20
1498.78245968614101
 30
0.0
 11
3800.0
 21
1198.78245968614101
 31
0.0
  0
LINE
  5
145
100
AcDbEntity
100
AcDbLine
  8
0
 62
256
370
-1
  6
ByLayer
 10
4500.0
 20
1198.78245968614101
 30
0.0
 11
4500.0
 21
1498.78245968614101
 31
0.0
  0
MTEXT
  5
146
100
AcDbEntity
100
AcDbMText
  8
ext_data
 62
256
370
-1
  6
ByLayer
 10
4520.5774235353092081
 20
1440.9701118083837628
 30
0.0
 40
30.0
 41
100.0
 71
1
 72
2
  1
ext_data
  7
normallatin1
 50
0.0
 73
1
 44
1.0
  0
MTEXT
  5
147
100
AcDbEntity
100
AcDbMText
  8
0
 62
256
370
-1
  6
ByLayer
 10
4000.5774235353092081
 20
1430.9701118083837628
 30
0.0
 40
30.0
 41
100.0
 71
1
 72
2
  1
ext_data_reg
  7
normallatin1
 50
0.0
 73
1
 44
1.0
  0
LINE
  5
148
100
AcDbEntity
100
AcDbLine
  8
CLK
 62
256
370
-1
  6
ByLayer
 10
3800.0
 20
1478.78245968614101
 30
0.0
 11
3630.0
 21
1478.78245968614101
 31
0.0
  0
LINE
  5
149
100
AcDbEntity
100
AcDbLine
  8
RESET
 62
256
370
-1
  6
ByLayer
 10
3800.0
 20
1428.78245968614101
 30
0.0
 11
3590.0
 21
1428.78245968614101
 31
0.0
  0
LINE
  5
14A
100
AcDbEntity
100
AcDbLine
  8
ext_addr_index
 62
256
370
-1
  6
ByLayer
 10
3160.0
 20
550.0
 30
0.0
 11
3160.0
 21
1378.78245968614101
 31
0.0
  0
LINE
  5
14B
100
AcDbEntity
100
AcDbLine
  8
ext_addr_index
 62
256
370
-1
  6
ByLayer
 10
3800.0
 20
1378.78245968614101
 30
0.0
 11
3160.0
 21
1378.78245968614101
 31
0.0
  0
LINE
  5
14C
100
AcDbEntity
100
AcDbLine
  8
data
 62
256
370
-1
  6
ByLayer
 10
3550.0
 20
1280.0
 30
0.0
 11
3550.0
 21
1650.0
 31
0.0
  0
LINE
  5
14D
100
AcDbEntity
100
AcDbLine
  8
data
 62
256
370
-1
  6
ByLayer
 10
3550.0
 20
1650.0
 30
0.0
 11
2200.0
 21
1650.0
 31
0.0
  0
LINE
  5
14E
100
AcDbEntity
100
AcDbLine
  8
data
 62
256
370
-1
  6
ByLayer
 10
2200.0
 20
1650.0
 30
0.0
 11
2200.0
 21
1280.0
 31
0.0
  0
LINE
  5
14F
100
AcDbEntity
100
AcDbLine
  8
data
 62
256
370
-1
  6
ByLayer
 10
2000.0
 20
1280.0
 30
0.0
 11
2200.0
 21
1280.0
 31
0.0
  0
LINE
  5
150
100
AcDbEntity
100
AcDbLine
  8
data
 62
256
370
-1
  6
ByLayer
 10
3550.0
 20
1280.0
 30
0.0
 11
3800.0
 21
1280.0
 31
0.0
  0
LINE
  5
151
100
AcDbEntity
100
AcDbLine
  8
0
 62
256
370
-1
  6
ByLayer
 10
2600.0
 20
1500.0
 30
0.0
 11
2800.0
 21
1500.0
 31
0.0
  0
LINE
  5
152
100
AcDbEntity
100
AcDbLine
  8
0
 62
256
370
-1
  6
ByLayer
 10
2800.0
 20
1150.0
 30
0.0
 11
2600.0
 21
1150.0
 31
0.0
  0
LINE
  5
153
100
AcDbEntity
100
AcDbLine
  8
0
 62
256
370
-1
  6
ByLayer
 10
2600.0
 20
1150.0
 30
0.0
 11
2600.0
 21
1500.0
 31
0.0
  0
LINE
  5
154
100
AcDbEntity
100
AcDbLine
  8
0
 62
256
370
-1
  6
ByLayer
 10
2800.0
 20
1500.0
 30
0.0
 11
2800.0
 21
1150.0
 31
0.0
  0
MTEXT
  5
155
100
AcDbEntity
100
AcDbMText
  8
send_sof_n
 62
256
370
-1
  6
ByLayer
 10
2820.0
 20
1450.0000033333335523
 30
0.0
 40
30.0
 41
100.0
 71
1
 72
2
  1
send_sof_n
  7
normallatin1
 50
0.0
 73
1
 44
1.0
  0
LINE
  5
156
100
AcDbEntity
100
AcDbLine
  8
CLK
 62
256
370
-1
  6
ByLayer
 10
2600.0
 20
1480.0
 30
0.0
 11
2560.0
 21
1480.0
 31
0.0
  0
LINE
  5
157
100
AcDbEntity
100
AcDbLine
  8
RESET
 62
256
370
-1
  6
ByLayer
 10
2600.0
 20
1430.0
 30
0.0
 11
2520.0
 21
1430.0
 31
0.0
  0
INSERT
  5
158
100
AcDbEntity
100
AcDbBlockReference
  8
RESET
 62
256
370
-1
  6
ByLayer
  2
FORK_POINT
 10
2520.0
 20
800.0
 30
0.0
 44
1.0
 45
1.0
  0
INSERT
  5
159
100
AcDbEntity
100
AcDbBlockReference
  8
CLK
 62
256
370
-1
  6
ByLayer
  2
FORK_POINT
 10
2560.0
 20
900.0
 30
0.0
 44
1.0
 45
1.0
  0
MTEXT
  5
15A
100
AcDbEntity
100
AcDbMText
  8
0
 62
256
370
-1
  6
ByLayer
 10
2638.7601643510943177
 20
1409.2497319808744578
 30
0.0
 40
30.0
 41
100.0
 71
1
 72
2
  1
send\P_sof_n\P_reg
  7
normallatin1
 50
0.0
 73
1
 44
1.0
  0
INSERT
  5
15B
100
AcDbEntity
100
AcDbBlockReference
  8
RESET
 62
256
370
-1
  6
ByLayer
  2
FORK_POINT
 10
2520.0
 20
-50.0
 30
0.0
 44
1.0
 45
1.0
  0
INSERT
  5
15C
100
AcDbEntity
100
AcDbBlockReference
  8
CLK
 62
256
370
-1
  6
ByLayer
  2
FORK_POINT
 10
2560.0
 20
0.0
 30
0.0
 44
1.0
 45
1.0
  0
INSERT
  5
15D
100
AcDbEntity
100
AcDbBlockReference
  8
cnt_en
 62
256
370
-1
  6
ByLayer
  2
FORK_POINT
 10
1680.0
 20
-1200.0
 30
0.0
 44
1.0
 45
1.0
  0
LINE
  5
15E
100
AcDbEntity
100
AcDbLine
  8
RX_SOF_N
 62
256
370
-1
  6
ByLayer
 10
-500.0
 20
-600.0
 30
0.0
 11
2440.0
 21
-600.0
 31
0.0
  0
LINE
  5
15F
100
AcDbEntity
100
AcDbLine
  8
0
 62
256
370
-1
  6
ByLayer
 10
1800.0
 20
-900.0
 30
0.0
 11
2000.0
 21
-900.0
 31
0.0
  0
LINE
  5
160
100
AcDbEntity
100
AcDbLine
  8
0
 62
256
370
-1
  6
ByLayer
 10
2000.0
 20
-1150.0
 30
0.0
 11
1800.0
 21
-1150.0
 31
0.0
  0
LINE
  5
161
100
AcDbEntity
100
AcDbLine
  8
0
 62
256
370
-1
  6
ByLayer
 10
1800.0
 20
-1150.0
 30
0.0
 11
1800.0
 21
-900.0
 31
0.0
  0
LINE
  5
162
100
AcDbEntity
100
AcDbLine
  8
0
 62
256
370
-1
  6
ByLayer
 10
2000.0
 20
-900.0
 30
0.0
 11
2000.0
 21
-1150.0
 31
0.0
  0
MTEXT
  5
163
100
AcDbEntity
100
AcDbMText
  8
send_eop_n
 62
256
370
-1
  6
ByLayer
 10
2020.0
 20
-949.9999966666664477
 30
0.0
 40
30.0
 41
100.0
 71
1
 72
2
  1
send_eop_n
  7
normallatin1
 50
0.0
 73
1
 44
1.0
  0
LINE
  5
164
100
AcDbEntity
100
AcDbLine
  8
0
 62
256
370
-1
  6
ByLayer
 10
1800.0
 20
-1350.0
 30
0.0
 11
2000.0
 21
-1350.0
 31
0.0
  0
LINE
  5
165
100
AcDbEntity
100
AcDbLine
  8
0
 62
256
370
-1
  6
ByLayer
 10
2000.0
 20
-1600.0
 30
0.0
 11
1800.0
 21
-1600.0
 31
0.0
  0
LINE
  5
166
100
AcDbEntity
100
AcDbLine
  8
0
 62
256
370
-1
  6
ByLayer
 10
1800.0
 20
-1600.0
 30
0.0
 11
1800.0
 21
-1350.0
 31
0.0
  0
LINE
  5
167
100
AcDbEntity
100
AcDbLine
  8
0
 62
256
370
-1
  6
ByLayer
 10
2000.0
 20
-1350.0
 30
0.0
 11
2000.0
 21
-1600.0
 31
0.0
  0
MTEXT
  5
168
100
AcDbEntity
100
AcDbMText
  8
send_eof_n
 62
256
370
-1
  6
ByLayer
 10
2020.0
 20
-1399.9999966666664477
 30
0.0
 40
30.0
 41
100.0
 71
1
 72
2
  1
send_eof_n
  7
normallatin1
 50
0.0
 73
1
 44
1.0
  0
LINE
  5
169
100
AcDbEntity
100
AcDbLine
  8
CLK
 62
256
370
-1
  6
ByLayer
 10
1800.0
 20
-1370.0
 30
0.0
 11
1760.0
 21
-1370.0
 31
0.0
  0
LINE
  5
16A
100
AcDbEntity
100
AcDbLine
  8
CLK
 62
256
370
-1
  6
ByLayer
 10
1760.0
 20
-1370.0
 30
0.0
 11
1760.0
 21
1350.0
 31
0.0
  0
LINE
  5
16B
100
AcDbEntity
100
AcDbLine
  8
RESET
 62
256
370
-1
  6
ByLayer
 10
1800.0
 20
-1420.0
 30
0.0
 11
1720.0
 21
-1420.0
 31
0.0
  0
LINE
  5
16C
100
AcDbEntity
100
AcDbLine
  8
RESET
 62
256
370
-1
  6
ByLayer
 10
1720.0
 20
-1420.0
 30
0.0
 11
1720.0
 21
1300.0
 31
0.0
  0
INSERT
  5
16D
100
AcDbEntity
100
AcDbBlockReference
  8
CLK
 62
256
370
-1
  6
ByLayer
  2
FORK_POINT
 10
1760.0
 20
-120.0
 30
0.0
 44
1.0
 45
1.0
  0
INSERT
  5
16E
100
AcDbEntity
100
AcDbBlockReference
  8
RESET
 62
256
370
-1
  6
ByLayer
  2
FORK_POINT
 10
1720.0
 20
-169.9999999999997726
 30
0.0
 44
1.0
 45
1.0
  0
INSERT
  5
16F
100
AcDbEntity
100
AcDbBlockReference
  8
CLK
 62
256
370
-1
  6
ByLayer
  2
FORK_POINT
 10
1760.0
 20
-920.0
 30
0.0
 44
1.0
 45
1.0
  0
INSERT
  5
170
100
AcDbEntity
100
AcDbBlockReference
  8
RESET
 62
256
370
-1
  6
ByLayer
  2
FORK_POINT
 10
1720.0
 20
-970.0
 30
0.0
 44
1.0
 45
1.0
  0
LINE
  5
171
100
AcDbEntity
100
AcDbLine
  8
CLK
 62
256
370
-1
  6
ByLayer
 10
1800.0
 20
-920.0
 30
0.0
 11
1760.0
 21
-920.0
 31
0.0
  0
LINE
  5
172
100
AcDbEntity
100
AcDbLine
  8
RESET
 62
256
370
-1
  6
ByLayer
 10
1800.0
 20
-970.0
 30
0.0
 11
1720.0
 21
-970.0
 31
0.0
  0
MTEXT
  5
173
100
AcDbEntity
100
AcDbMText
  8
0
 62
256
370
-1
  6
ByLayer
 10
1810.3499637120685293
 20
-966.3986674713919456
 30
0.0
 40
30.0
 41
100.0
 71
1
 72
2
  1
send_eop\P_n_reg
  7
normallatin1
 50
0.0
 73
1
 44
1.0
  0
MTEXT
  5
174
100
AcDbEntity
100
AcDbMText
  8
0
 62
256
370
-1
  6
ByLayer
 10
1812.988053771407067
 20
-1428.9803277543896911
 30
0.0
 40
30.0
 41
100.0
 71
1
 72
2
  1
send_eof\P_n_reg
  7
normallatin1
 50
0.0
 73
1
 44
1.0
  0
LINE
  5
175
100
AcDbEntity
100
AcDbLine
  8
cnt_en
 62
256
370
-1
  6
ByLayer
 10
1680.0
 20
1200.0
 30
0.0
 11
1680.0
 21
-1470.0
 31
0.0
  0
INSERT
  5
176
100
AcDbEntity
100
AcDbBlockReference
  8
cnt_en
 62
256
370
-1
  6
ByLayer
  2
FORK_POINT
 10
1680.0
 20
-1020.0
 30
0.0
 44
1.0
 45
1.0
  0
LINE
  5
177
100
AcDbEntity
100
AcDbLine
  8
RX_EOP_N
 62
256
370
-1
  6
ByLayer
 10
1640.0
 20
-1120.0
 30
0.0
 11
1640.0
 21
-220.0
 31
0.0
  0
INSERT
  5
178
100
AcDbEntity
100
AcDbBlockReference
  8
RX_EOP_N
 62
256
370
-1
  6
ByLayer
  2
FORK_POINT
 10
1640.0
 20
-500.0
 30
0.0
 44
1.0
 45
1.0
  0
LINE
  5
179
100
AcDbEntity
100
AcDbLine
  8
RX_EOP_N
 62
256
370
-1
  6
ByLayer
 10
1800.0
 20
-1120.0
 30
0.0
 11
1640.0
 21
-1120.0
 31
0.0
  0
LINE
  5
17A
100
AcDbEntity
100
AcDbLine
  8
data_en
 62
256
370
-1
  6
ByLayer
 10
1800.0
 20
-1070.0
 30
0.0
 11
1600.0
 21
-1070.0
 31
0.0
  0
LINE
  5
17B
100
AcDbEntity
100
AcDbLine
  8
cnt_en
 62
256
370
-1
  6
ByLayer
 10
1800.0
 20
-1470.0
 30
0.0
 11
1680.0
 21
-1470.0
 31
0.0
  0
LINE
  5
17C
100
AcDbEntity
100
AcDbLine
  8
RX_EOF_N
 62
256
370
-1
  6
ByLayer
 10
1560.0
 20
-700.0
 30
0.0
 11
1560.0
 21
-1570.0
 31
0.0
  0
LINE
  5
17D
100
AcDbEntity
100
AcDbLine
  8
data_en
 62
256
370
-1
  6
ByLayer
 10
1600.0
 20
-750.0
 30
0.0
 11
1600.0
 21
-1520.0
 31
0.0
  0
INSERT
  5
17E
100
AcDbEntity
100
AcDbBlockReference
  8
data_en
 62
256
370
-1
  6
ByLayer
  2
FORK_POINT
 10
1600.0
 20
-1070.0
 30
0.0
 44
1.0
 45
1.0
  0
LINE
  5
17F
100
AcDbEntity
100
AcDbLine
  8
data_en
 62
256
370
-1
  6
ByLayer
 10
1800.0
 20
-1520.0
 30
0.0
 11
1600.0
 21
-1520.0
 31
0.0
  0
LINE
  5
180
100
AcDbEntity
100
AcDbLine
  8
RX_EOF_N
 62
256
370
-1
  6
ByLayer
 10
1800.0
 20
-1570.0
 30
0.0
 11
1560.0
 21
-1570.0
 31
0.0
  0
INSERT
  5
181
100
AcDbEntity
100
AcDbBlockReference
  8
cnt_en
 62
256
370
-1
  6
ByLayer
  2
FORK_POINT
 10
2480.0
 20
-1200.0
 30
0.0
 44
1.0
 45
1.0
  0
INSERT
  5
182
100
AcDbEntity
100
AcDbBlockReference
  8
data_en
 62
256
370
-1
  6
ByLayer
  2
FORK_POINT
 10
2440.0
 20
-750.0
 30
0.0
 44
1.0
 45
1.0
  0
LINE
  5
183
100
AcDbEntity
100
AcDbLine
  8
0
 62
256
370
-1
  6
ByLayer
 10
2600.0
 20
-1320.0
 30
0.0
 11
2800.0
 21
-1320.0
 31
0.0
  0
LINE
  5
184
100
AcDbEntity
100
AcDbLine
  8
0
 62
256
370
-1
  6
ByLayer
 10
2800.0
 20
-1670.0
 30
0.0
 11
2600.0
 21
-1670.0
 31
0.0
  0
LINE
  5
185
100
AcDbEntity
100
AcDbLine
  8
0
 62
256
370
-1
  6
ByLayer
 10
2600.0
 20
-1670.0
 30
0.0
 11
2600.0
 21
-1320.0
 31
0.0
  0
LINE
  5
186
100
AcDbEntity
100
AcDbLine
  8
0
 62
256
370
-1
  6
ByLayer
 10
2800.0
 20
-1320.0
 30
0.0
 11
2800.0
 21
-1670.0
 31
0.0
  0
MTEXT
  5
187
100
AcDbEntity
100
AcDbMText
  8
send_sop_n
 62
256
370
-1
  6
ByLayer
 10
2820.0
 20
-1369.9999966666664477
 30
0.0
 40
30.0
 41
100.0
 71
1
 72
2
  1
send_sop_n
  7
normallatin1
 50
0.0
 73
1
 44
1.0
  0
MTEXT
  5
188
100
AcDbEntity
100
AcDbMText
  8
0
 62
256
370
-1
  6
ByLayer
 10
2636.2235392940392558
 20
-1413.2868930761815136
 30
0.0
 40
30.0
 41
100.0
 71
1
 72
2
  1
send\P_sop_n\P_reg
  7
normallatin1
 50
0.0
 73
1
 44
1.0
  0
LINE
  5
189
100
AcDbEntity
100
AcDbLine
  8
CLK
 62
256
370
-1
  6
ByLayer
 10
2600.0
 20
-1340.0
 30
0.0
 11
2560.0
 21
-1340.0
 31
0.0
  0
LINE
  5
18A
100
AcDbEntity
100
AcDbLine
  8
CLK
 62
256
370
-1
  6
ByLayer
 10
2560.0
 20
1480.0
 30
0.0
 11
2560.0
 21
-1340.0
 31
0.0
  0
LINE
  5
18B
100
AcDbEntity
100
AcDbLine
  8
RESET
 62
256
370
-1
  6
ByLayer
 10
2600.0
 20
-1390.0
 30
0.0
 11
2520.0
 21
-1390.0
 31
0.0
  0
LINE
  5
18C
100
AcDbEntity
100
AcDbLine
  8
RESET
 62
256
370
-1
  6
ByLayer
 10
2520.0
 20
1430.0
 30
0.0
 11
2520.0
 21
-1390.0
 31
0.0
  0
LINE
  5
18D
100
AcDbEntity
100
AcDbLine
  8
cnt_en
 62
256
370
-1
  6
ByLayer
 10
2600.0
 20
-1440.0
 30
0.0
 11
2480.0
 21
-1440.0
 31
0.0
  0
LINE
  5
18E
100
AcDbEntity
100
AcDbLine
  8
cnt_en
 62
256
370
-1
  6
ByLayer
 10
2480.0
 20
1180.0
 30
0.0
 11
2480.0
 21
-1440.0
 31
0.0
  0
LINE
  5
18F
100
AcDbEntity
100
AcDbLine
  8
cnt_en
 62
256
370
-1
  6
ByLayer
 10
2600.0
 20
-1490.0
 30
0.0
 11
2440.0
 21
-1490.0
 31
0.0
  0
LINE
  5
190
100
AcDbEntity
100
AcDbLine
  8
data_en
 62
256
370
-1
  6
ByLayer
 10
2440.0
 20
-750.0
 30
0.0
 11
2440.0
 21
-1490.0
 31
0.0
  0
LINE
  5
191
100
AcDbEntity
100
AcDbLine
  8
RX_SOP_N
 62
256
370
-1
  6
ByLayer
 10
2600.0
 20
-1640.0
 30
0.0
 11
1520.0
 21
-1640.0
 31
0.0
  0
LINE
  5
192
100
AcDbEntity
100
AcDbLine
  8
send_data_rdy
 62
256
370
-1
  6
ByLayer
 10
2600.0
 20
-1540.0
 30
0.0
 11
2400.0
 21
-1540.0
 31
0.0
  0
INSERT
  5
193
100
AcDbEntity
100
AcDbBlockReference
  8
send_data_rdy
 62
256
370
-1
  6
ByLayer
  2
FORK_POINT
 10
2400.0
 20
-1280.0
 30
0.0
 44
1.0
 45
1.0
  0
LINE
  5
194
100
AcDbEntity
100
AcDbLine
  8
send_eop_n
 62
256
370
-1
  6
ByLayer
 10
2360.0
 20
-1000.0
 30
0.0
 11
2360.0
 21
-1590.0
 31
0.0
  0
LINE
  5
195
100
AcDbEntity
100
AcDbLine
  8
send_eop_n
 62
256
370
-1
  6
ByLayer
 10
2600.0
 20
-1590.0
 30
0.0
 11
2360.0
 21
-1590.0
 31
0.0
  0
LINE
  5
196
100
AcDbEntity
100
AcDbLine
  8
RX_SOF_N
 62
256
370
-1
  6
ByLayer
 10
2440.0
 20
1230.0
 30
0.0
 11
2440.0
 21
-600.0
 31
0.0
  0
LINE
  5
197
100
AcDbEntity
100
AcDbLine
  8
RX_SOF_N
 62
256
370
-1
  6
ByLayer
 10
2600.0
 20
1230.0
 30
0.0
 11
2440.0
 21
1230.0
 31
0.0
  0
LINE
  5
198
100
AcDbEntity
100
AcDbLine
  8
cnt_en
 62
256
370
-1
  6
ByLayer
 10
2600.0
 20
1180.0
 30
0.0
 11
2480.0
 21
1180.0
 31
0.0
  0
LINE
  5
199
100
AcDbEntity
100
AcDbLine
  8
send_data_rdy
 62
256
370
-1
  6
ByLayer
 10
2400.0
 20
-1540.0
 30
0.0
 11
2400.0
 21
1280.0
 31
0.0
  0
LINE
  5
19A
100
AcDbEntity
100
AcDbLine
  8
send_data_rdy
 62
256
370
-1
  6
ByLayer
 10
2600.0
 20
1280.0
 30
0.0
 11
2400.0
 21
1280.0
 31
0.0
  0
LINE
  5
19B
100
AcDbEntity
100
AcDbLine
  8
send_eof_n
 62
256
370
-1
  6
ByLayer
 10
2320.0
 20
-1450.0
 30
0.0
 11
2000.0
 21
-1450.0
 31
0.0
  0
INSERT
  5
19C
100
AcDbEntity
100
AcDbBlockReference
  8
data_en
 62
256
370
-1
  6
ByLayer
  2
FORK_POINT
 10
2360.0
 20
-750.0
 30
0.0
 44
1.0
 45
1.0
  0
LINE
  5
19D
100
AcDbEntity
100
AcDbLine
  8
data_en
 62
256
370
-1
  6
ByLayer
 10
2360.0
 20
-750.0
 30
0.0
 11
2360.0
 21
1330.0
 31
0.0
  0
LINE
  5
19E
100
AcDbEntity
100
AcDbLine
  8
data_en
 62
256
370
-1
  6
ByLayer
 10
2600.0
 20
1330.0
 30
0.0
 11
2360.0
 21
1330.0
 31
0.0
  0
LINE
  5
19F
100
AcDbEntity
100
AcDbLine
  8
send_eof_n
 62
256
370
-1
  6
ByLayer
 10
2320.0
 20
-1450.0
 30
0.0
 11
2320.0
 21
1380.0
 31
0.0
  0
LINE
  5
1A0
100
AcDbEntity
100
AcDbLine
  8
send_eof_n
 62
256
370
-1
  6
ByLayer
 10
2600.0
 20
1380.0
 30
0.0
 11
2320.0
 21
1380.0
 31
0.0
  0
LINE
  5
1A1
100
AcDbEntity
100
AcDbLine
  8
CLK
 62
256
370
-1
  6
ByLayer
 10
3630.0
 20
1478.78245968614101
 30
0.0
 11
3630.0
 21
900.0
 31
0.0
  0
LINE
  5
1A2
100
AcDbEntity
100
AcDbLine
  8
RESET
 62
256
370
-1
  6
ByLayer
 10
3590.0
 20
1428.78245968614101
 30
0.0
 11
3590.0
 21
800.0
 31
0.0
  0
LINE
  5
1A3
100
AcDbEntity
100
AcDbLine
  8
ext_data
 62
256
370
-1
  6
ByLayer
 10
4950.0
 20
900.0
 30
0.0
 11
5000.0
 21
900.0
 31
0.0
  0
LINE
  5
1A4
100
AcDbEntity
100
AcDbLine
  8
ext_data
 62
256
370
-1
  6
ByLayer
 10
4950.0
 20
1398.78245968614101
 30
0.0
 11
4950.0
 21
900.0
 31
0.0
  0
LINE
  5
1A5
100
AcDbEntity
100
AcDbLine
  8
ext_data
 62
256
370
-1
  6
ByLayer
 10
4950.0
 20
1398.78245968614101
 30
0.0
 11
4500.0
 21
1398.78245968614101
 31
0.0
  0
LINE
  5
1A6
100
AcDbEntity
100
AcDbLine
  8
0
 62
256
370
-1
  6
ByLayer
 10
4200.0
 20
250.0
 30
0.0
 11
4400.0
 21
250.0
 31
0.0
  0
LINE
  5
1A7
100
AcDbEntity
100
AcDbLine
  8
0
 62
256
370
-1
  6
ByLayer
 10
4400.0
 20
0.0
 30
0.0
 11
4200.0
 21
0.0
 31
0.0
  0
LINE
  5
1A8
100
AcDbEntity
100
AcDbLine
  8
0
 62
256
370
-1
  6
ByLayer
 10
4200.0
 20
0.0
 30
0.0
 11
4200.0
 21
250.0
 31
0.0
  0
LINE
  5
1A9
100
AcDbEntity
100
AcDbLine
  8
0
 62
256
370
-1
  6
ByLayer
 10
4400.0
 20
250.0
 30
0.0
 11
4400.0
 21
0.0
 31
0.0
  0
LINE
  5
1AA
100
AcDbEntity
100
AcDbLine
  8
0
 62
256
370
-1
  6
ByLayer
 10
4200.0
 20
650.0
 30
0.0
 11
4400.0
 21
650.0
 31
0.0
  0
LINE
  5
1AB
100
AcDbEntity
100
AcDbLine
  8
0
 62
256
370
-1
  6
ByLayer
 10
4400.0
 20
400.0
 30
0.0
 11
4200.0
 21
400.0
 31
0.0
  0
LINE
  5
1AC
100
AcDbEntity
100
AcDbLine
  8
0
 62
256
370
-1
  6
ByLayer
 10
4200.0
 20
400.0
 30
0.0
 11
4200.0
 21
650.0
 31
0.0
  0
LINE
  5
1AD
100
AcDbEntity
100
AcDbLine
  8
0
 62
256
370
-1
  6
ByLayer
 10
4400.0
 20
650.0
 30
0.0
 11
4400.0
 21
400.0
 31
0.0
  0
MTEXT
  5
1AE
100
AcDbEntity
100
AcDbMText
  8
send_data
 62
256
370
-1
  6
ByLayer
 10
4420.0
 20
600.0000033333335523
 30
0.0
 40
30.0
 41
100.0
 71
1
 72
2
  1
send_data
  7
normallatin1
 50
0.0
 73
1
 44
1.0
  0
MTEXT
  5
1AF
100
AcDbEntity
100
AcDbMText
  8
0
 62
256
370
-1
  6
ByLayer
 10
4225.0952237139263161
 20
594.7574531365759185
 30
0.0
 40
30.0
 41
100.0
 71
1
 72
2
  1
rx_send\P_data\P_reg
  7
normallatin1
 50
0.0
 73
1
 44
1.0
  0
LINE
  5
1B0
100
AcDbEntity
100
AcDbLine
  8
0
 62
256
370
-1
  6
ByLayer
 10
4200.0
 20
-1470.0
 30
0.0
 11
4400.0
 21
-1470.0
 31
0.0
  0
LINE
  5
1B1
100
AcDbEntity
100
AcDbLine
  8
0
 62
256
370
-1
  6
ByLayer
 10
4400.0
 20
-1470.0
 30
0.0
 11
4400.0
 21
-1670.0
 31
0.0
  0
LINE
  5
1B2
100
AcDbEntity
100
AcDbLine
  8
0
 62
256
370
-1
  6
ByLayer
 10
4400.0
 20
-1670.0
 30
0.0
 11
4200.0
 21
-1670.0
 31
0.0
  0
LINE
  5
1B3
100
AcDbEntity
100
AcDbLine
  8
0
 62
256
370
-1
  6
ByLayer
 10
4200.0
 20
-1670.0
 30
0.0
 11
4200.0
 21
-1470.0
 31
0.0
  0
MTEXT
  5
1B4
100
AcDbEntity
100
AcDbMText
  8
send_data_rdy
 62
256
370
-1
  6
ByLayer
 10
4420.0
 20
-1519.9999966666664477
 30
0.0
 40
30.0
 41
100.0
 71
1
 72
2
  1
send_data_rdy
  7
normallatin1
 50
0.0
 73
1
 44
1.0
  0
MTEXT
  5
1B5
100
AcDbEntity
100
AcDbMText
  8
0
 62
256
370
-1
  6
ByLayer
 10
4214.6018368932163867
 20
-1501.7729629474492867
 30
0.0
 40
30.0
 41
100.0
 71
1
 72
2
  1
send\P_data\P_rdy_reg
  7
normallatin1
 50
0.0
 73
1
 44
1.0
  0
LINE
  5
1B6
100
AcDbEntity
100
AcDbLine
  8
send_data_rdy
 62
256
370
-1
  6
ByLayer
 10
4760.0
 20
-1570.0
 30
0.0
 11
4400.0
 21
-1570.0
 31
0.0
  0
LINE
  5
1B7
100
AcDbEntity
100
AcDbLine
  8
send_data
 62
256
370
-1
  6
ByLayer
 10
4950.0
 20
0.0
 30
0.0
 11
4950.0
 21
550.0
 31
0.0
  0
LINE
  5
1B8
100
AcDbEntity
100
AcDbLine
  8
send_data
 62
256
370
-1
  6
ByLayer
 10
4950.0
 20
550.0
 30
0.0
 11
4400.0
 21
550.0
 31
0.0
  0
LINE
  5
1B9
100
AcDbEntity
100
AcDbLine
  8
send_data_rdy
 62
256
370
-1
  6
ByLayer
 10
4760.0
 20
-1280.0
 30
0.0
 11
4760.0
 21
-1570.0
 31
0.0
  0
LINE
  5
1BA
100
AcDbEntity
100
AcDbLine
  8
send_data_rdy
 62
256
370
-1
  6
ByLayer
 10
2400.0
 20
-1280.0
 30
0.0
 11
4760.0
 21
-1280.0
 31
0.0
  0
LINE
  5
1BB
100
AcDbEntity
100
AcDbLine
  8
CLK
 62
256
370
-1
  6
ByLayer
 10
0.0
 20
900.0
 30
0.0
 11
4160.0
 21
900.0
 31
0.0
  0
LINE
  5
1BC
100
AcDbEntity
100
AcDbLine
  8
RESET
 62
256
370
-1
  6
ByLayer
 10
0.0
 20
800.0
 30
0.0
 11
4120.0
 21
800.0
 31
0.0
  0
LINE
  5
1BD
100
AcDbEntity
100
AcDbLine
  8
RESET
 62
256
370
-1
  6
ByLayer
 10
4200.0
 20
580.0
 30
0.0
 11
4120.0
 21
580.0
 31
0.0
  0
LINE
  5
1BE
100
AcDbEntity
100
AcDbLine
  8
CLK
 62
256
370
-1
  6
ByLayer
 10
4200.0
 20
630.0
 30
0.0
 11
4160.0
 21
630.0
 31
0.0
  0
INSERT
  5
1BF
100
AcDbEntity
100
AcDbBlockReference
  8
RESET
 62
256
370
-1
  6
ByLayer
  2
FORK_POINT
 10
4120.0
 20
580.0
 30
0.0
 44
1.0
 45
1.0
  0
INSERT
  5
1C0
100
AcDbEntity
100
AcDbBlockReference
  8
CLK
 62
256
370
-1
  6
ByLayer
  2
FORK_POINT
 10
4160.0
 20
630.0
 30
0.0
 44
1.0
 45
1.0
  0
LINE
  5
1C1
100
AcDbEntity
100
AcDbLine
  8
RESET
 62
256
370
-1
  6
ByLayer
 10
4200.0
 20
180.0
 30
0.0
 11
4120.0
 21
180.0
 31
0.0
  0
LINE
  5
1C2
100
AcDbEntity
100
AcDbLine
  8
CLK
 62
256
370
-1
  6
ByLayer
 10
4200.0
 20
230.0
 30
0.0
 11
4160.0
 21
230.0
 31
0.0
  0
LINE
  5
1C3
100
AcDbEntity
100
AcDbLine
  8
CLK
 62
256
370
-1
  6
ByLayer
 10
4200.0
 20
-1490.0
 30
0.0
 11
4160.0
 21
-1490.0
 31
0.0
  0
LINE
  5
1C4
100
AcDbEntity
100
AcDbLine
  8
CLK
 62
256
370
-1
  6
ByLayer
 10
4160.0
 20
-1490.0
 30
0.0
 11
4160.0
 21
900.0
 31
0.0
  0
LINE
  5
1C5
100
AcDbEntity
100
AcDbLine
  8
RESET
 62
256
370
-1
  6
ByLayer
 10
4200.0
 20
-1540.0
 30
0.0
 11
4120.0
 21
-1540.0
 31
0.0
  0
LINE
  5
1C6
100
AcDbEntity
100
AcDbLine
  8
RESET
 62
256
370
-1
  6
ByLayer
 10
4120.0
 20
-1540.0
 30
0.0
 11
4120.0
 21
800.0
 31
0.0
  0
INSERT
  5
1C7
100
AcDbEntity
100
AcDbBlockReference
  8
CLK
 62
256
370
-1
  6
ByLayer
  2
FORK_POINT
 10
4160.0
 20
230.0
 30
0.0
 44
1.0
 45
1.0
  0
INSERT
  5
1C8
100
AcDbEntity
100
AcDbBlockReference
  8
RESET
 62
256
370
-1
  6
ByLayer
  2
FORK_POINT
 10
4120.0
 20
180.0
 30
0.0
 44
1.0
 45
1.0
  0
LINE
  5
1C9
100
AcDbEntity
100
AcDbLine
  8
data_en
 62
256
370
-1
  6
ByLayer
 10
4200.0
 20
-1590.0
 30
0.0
 11
4080.0
 21
-1590.0
 31
0.0
  0
LINE
  5
1CA
100
AcDbEntity
100
AcDbLine
  8
data_en
 62
256
370
-1
  6
ByLayer
 10
4200.0
 20
30.0
 30
0.0
 11
4080.0
 21
30.0
 31
0.0
  0
LINE
  5
1CB
100
AcDbEntity
100
AcDbLine
  8
data_en
 62
256
370
-1
  6
ByLayer
 10
4200.0
 20
430.0
 30
0.0
 11
4080.0
 21
430.0
 31
0.0
  0
LINE
  5
1CC
100
AcDbEntity
100
AcDbLine
  8
data_en
 62
256
370
-1
  6
ByLayer
 10
4080.0
 20
-1590.0
 30
0.0
 11
4080.0
 21
430.0
 31
0.0
  0
LINE
  5
1CD
100
AcDbEntity
100
AcDbLine
  8
cnt_en
 62
256
370
-1
  6
ByLayer
 10
393.0
 20
-1200.0
 30
0.0
 11
4040.0
 21
-1200.0
 31
0.0
  0
LINE
  5
1CE
100
AcDbEntity
100
AcDbLine
  8
cnt_en
 62
256
370
-1
  6
ByLayer
 10
4200.0
 20
80.0
 30
0.0
 11
4040.0
 21
80.0
 31
0.0
  0
LINE
  5
1CF
100
AcDbEntity
100
AcDbLine
  8
cnt_en
 62
256
370
-1
  6
ByLayer
 10
4040.0
 20
-1200.0
 30
0.0
 11
4040.0
 21
480.0
 31
0.0
  0
LINE
  5
1D0
100
AcDbEntity
100
AcDbLine
  8
cnt_en
 62
256
370
-1
  6
ByLayer
 10
4200.0
 20
480.0
 30
0.0
 11
4040.0
 21
480.0
 31
0.0
  0
INSERT
  5
1D1
100
AcDbEntity
100
AcDbBlockReference
  8
cnt_en
 62
256
370
-1
  6
ByLayer
  2
FORK_POINT
 10
4040.0
 20
80.0
 30
0.0
 44
1.0
 45
1.0
  0
INSERT
  5
1D2
100
AcDbEntity
100
AcDbBlockReference
  8
data_en
 62
256
370
-1
  6
ByLayer
  2
FORK_POINT
 10
4080.0
 20
30.0
 30
0.0
 44
1.0
 45
1.0
  0
INSERT
  5
1D3
100
AcDbEntity
100
AcDbBlockReference
  8
RX_DATA
 62
256
370
-1
  6
ByLayer
  2
FORK_POINT
 10
1640.0
 20
1100.0
 30
0.0
 44
1.0
 45
1.0
  0
LINE
  5
1D4
100
AcDbEntity
100
AcDbLine
  8
RX_DATA
 62
256
370
-1
  6
ByLayer
 10
4200.0
 20
530.0
 30
0.0
 11
4040.0
 21
530.0
 31
0.0
  0
LINE
  5
1D5
100
AcDbEntity
100
AcDbLine
  8
RX_DATA
 62
256
370
-1
  6
ByLayer
 10
4040.0
 20
530.0
 30
0.0
 11
4040.0
 21
1100.0
 31
0.0
  0
LINE
  5
1D6
100
AcDbEntity
100
AcDbLine
  8
RX_DATA
 62
256
370
-1
  6
ByLayer
 10
200.0
 20
1100.0
 30
0.0
 11
4040.0
 21
1100.0
 31
0.0
  0
LINE
  5
1D7
100
AcDbEntity
100
AcDbLine
  8
RX_REM
 62
256
370
-1
  6
ByLayer
 10
-500.0
 20
-100.0
 30
0.0
 11
250.0
 21
-100.0
 31
0.0
  0
LINE
  5
1D8
100
AcDbEntity
100
AcDbLine
  8
RX_REM
 62
256
370
-1
  6
ByLayer
 10
250.0
 20
-100.0
 30
0.0
 11
250.0
 21
760.0
 31
0.0
  0
LINE
  5
1D9
100
AcDbEntity
100
AcDbLine
  8
RX_REM
 62
256
370
-1
  6
ByLayer
 10
250.0
 20
760.0
 30
0.0
 11
4000.0
 21
760.0
 31
0.0
  0
LINE
  5
1DA
100
AcDbEntity
100
AcDbLine
  8
RX_REM
 62
256
370
-1
  6
ByLayer
 10
4200.0
 20
130.0
 30
0.0
 11
4000.0
 21
130.0
 31
0.0
  0
LINE
  5
1DB
100
AcDbEntity
100
AcDbLine
  8
RX_SRC_RDY_N
 62
256
370
-1
  6
ByLayer
 10
800.0
 20
-220.0
 30
0.0
 11
100.0
 21
-220.0
 31
0.0
  0
LINE
  5
1DC
100
AcDbEntity
100
AcDbLine
  8
cnt_en
 62
256
370
-1
  6
ByLayer
 10
1800.0
 20
-1020.0
 30
0.0
 11
1680.0
 21
-1020.0
 31
0.0
  0
MTEXT
  5
1DD
100
AcDbEntity
100
AcDbMText
  8
0
 62
256
370
-1
  6
ByLayer
 10
4207.9469441361397912
 20
173.7188934854323179
 30
0.0
 40
28.0
 41
100.0
 71
1
 72
2
  1
send_data\P_rem_reg
  7
normallatin1
 50
0.0
 73
1
 44
1.0
  0
LINE
  5
1DE
100
AcDbEntity
100
AcDbLine
  8
0
 62
256
370
-1
  6
ByLayer
 10
4200.0
 20
-950.0
 30
0.0
 11
4400.0
 21
-950.0
 31
0.0
  0
LINE
  5
1DF
100
AcDbEntity
100
AcDbLine
  8
0
 62
256
370
-1
  6
ByLayer
 10
4400.0
 20
-1200.0
 30
0.0
 11
4200.0
 21
-1200.0
 31
0.0
  0
LINE
  5
1E0
100
AcDbEntity
100
AcDbLine
  8
0
 62
256
370
-1
  6
ByLayer
 10
4200.0
 20
-1200.0
 30
0.0
 11
4200.0
 21
-950.0
 31
0.0
  0
LINE
  5
1E1
100
AcDbEntity
100
AcDbLine
  8
0
 62
256
370
-1
  6
ByLayer
 10
4400.0
 20
-950.0
 30
0.0
 11
4400.0
 21
-1200.0
 31
0.0
  0
LINE
  5
1E2
100
AcDbEntity
100
AcDbLine
  8
RESET
 62
256
370
-1
  6
ByLayer
 10
4200.0
 20
-1020.0
 30
0.0
 11
4120.0
 21
-1020.0
 31
0.0
  0
LINE
  5
1E3
100
AcDbEntity
100
AcDbLine
  8
CLK
 62
256
370
-1
  6
ByLayer
 10
4200.0
 20
-970.0
 30
0.0
 11
4160.0
 21
-970.0
 31
0.0
  0
LINE
  5
1E4
100
AcDbEntity
100
AcDbLine
  8
cnt_en
 62
256
370
-1
  6
ByLayer
 10
4200.0
 20
-1120.0
 30
0.0
 11
4040.0
 21
-1120.0
 31
0.0
  0
LINE
  5
1E5
100
AcDbEntity
100
AcDbLine
  8
send_data_rem
 62
256
370
-1
  6
ByLayer
 10
5000.0
 20
-100.0
 30
0.0
 11
4900.0
 21
-100.0
 31
0.0
  0
LINE
  5
1E6
100
AcDbEntity
100
AcDbLine
  8
send_data_rem
 62
256
370
-1
  6
ByLayer
 10
4900.0
 20
-100.0
 30
0.0
 11
4900.0
 21
150.0
 31
0.0
  0
LINE
  5
1E7
100
AcDbEntity
100
AcDbLine
  8
send_data_rem
 62
256
370
-1
  6
ByLayer
 10
4900.0
 20
150.0
 30
0.0
 11
4400.0
 21
150.0
 31
0.0
  0
MTEXT
  5
1E8
100
AcDbEntity
100
AcDbMText
  8
send_data_rem
 62
256
370
-1
  6
ByLayer
 10
4420.0
 20
200.0000033333335523
 30
0.0
 40
30.0
 41
100.0
 71
1
 72
2
  1
send_data_rem
  7
normallatin1
 50
0.0
 73
1
 44
1.0
  0
MTEXT
  5
1E9
100
AcDbEntity
100
AcDbMText
  8
0
 62
256
370
-1
  6
ByLayer
 10
4219.2919890814373503
 20
-1027.9018272210387295
 30
0.0
 40
30.0
 41
100.0
 71
1
 72
2
  1
data_\Prem_reg
  7
normallatin1
 50
0.0
 73
1
 44
1.0
  0
MTEXT
  5
1EA
100
AcDbEntity
100
AcDbMText
  8
data_rem
 62
256
370
-1
  6
ByLayer
 10
4420.0
 20
-999.9999966666664477
 30
0.0
 40
30.0
 41
100.0
 71
1
 72
2
  1
data_rem
  7
normallatin1
 50
0.0
 73
1
 44
1.0
  0
LINE
  5
1EB
100
AcDbEntity
100
AcDbLine
  8
RX_REM
 62
256
370
-1
  6
ByLayer
 10
4200.0
 20
-1070.0
 30
0.0
 11
4000.0
 21
-1070.0
 31
0.0
  0
LINE
  5
1EC
100
AcDbEntity
100
AcDbLine
  8
RX_REM
 62
256
370
-1
  6
ByLayer
 10
4000.0
 20
-1070.0
 30
0.0
 11
4000.0
 21
760.0
 31
0.0
  0
INSERT
  5
1ED
100
AcDbEntity
100
AcDbBlockReference
  8
RX_REM
 62
256
370
-1
  6
ByLayer
  2
FORK_POINT
 10
4000.0
 20
130.0
 30
0.0
 44
1.0
 45
1.0
  0
MTEXT
  5
1EE
100
AcDbEntity
100
AcDbMText
  8
EXTRACTED_DONE
 62
256
370
-1
  6
ByLayer
 10
5500.0
 20
859.0452420711516197
 30
0.0
 40
30.0
 41
100.0
 71
3
 72
2
  1
EXTRACTED_DONE
  7
normallatin1
 50
360.0
 73
1
 44
1.0
  0
LINE
  5
1EF
100
AcDbEntity
100
AcDbLine
  8
EXTRACTED_DONE
 62
256
370
-1
  6
ByLayer
 10
5500.0
 20
800.0
 30
0.0
 11
4800.0
 21
800.0000000000002274
 31
0.0
  0
LINE
  5
1F0
100
AcDbEntity
100
AcDbLine
  8
EXTRACTED_DONE
 62
256
370
-1
  6
ByLayer
 10
4800.0
 20
-110.0
 30
0.0
 11
4800.0
 21
800.0000000000002274
 31
0.0
  0
MTEXT
  5
1F1
100
AcDbEntity
100
AcDbMText
  8
EXTRACTED_ERR
 62
256
370
-1
  6
ByLayer
 10
5500.0
 20
759.0452420711516197
 30
0.0
 40
30.0
 41
100.0
 71
3
 72
2
  1
EXTRACTED_ERR
  7
normallatin1
 50
360.0
 73
1
 44
1.0
  0
LINE
  5
1F2
100
AcDbEntity
100
AcDbLine
  8
EXTRACTED_ERR
 62
256
370
-1
  6
ByLayer
 10
5500.0
 20
700.0
 30
0.0
 11
4850.0
 21
700.0000000000002274
 31
0.0
  0
LINE
  5
1F3
100
AcDbEntity
100
AcDbLine
  8
EXTRACTED_ERR
 62
256
370
-1
  6
ByLayer
 10
4850.0
 20
-190.0
 30
0.0
 11
4850.0
 21
700.0000000000002274
 31
0.0
  0
MTEXT
  5
1F4
100
AcDbEntity
100
AcDbMText
  8
dst_rdy_n
 62
256
370
-1
  6
ByLayer
 10
3530.0
 20
-300.9547579288483803
 30
0.0
 40
30.0
 41
100.0
 71
3
 72
2
  1
dst_rdy_n
  7
normallatin1
 50
360.0
 73
1
 44
1.0
  0
LINE
  5
1F5
100
AcDbEntity
100
AcDbLine
  8
0
 62
256
370
-1
  6
ByLayer
 10
2910.0
 20
30.0
 30
0.0
 11
3310.0
 21
30.0
 31
0.0
  0
LINE
  5
1F6
100
AcDbEntity
100
AcDbLine
  8
0
 62
256
370
-1
  6
ByLayer
 10
3310.0
 20
30.0
 30
0.0
 11
3310.0
 21
-700.0
 31
0.0
  0
MTEXT
  5
1F7
100
AcDbEntity
100
AcDbMText
  8
0
 62
256
370
-1
  6
ByLayer
 10
3073.8816300636635788
 20
-310.925257951610206
 30
0.0
 40
30.0
 41
100.0
 71
1
 72
2
  1
FSM
  7
normallatin1
 50
0.0
 73
0
 44
1.0
  0
LINE
  5
1F8
100
AcDbEntity
100
AcDbLine
  8
dst_rdy_n
 62
256
370
-1
  6
ByLayer
 10
3310.0
 20
-350.0
 30
0.0
 11
3750.0
 21
-350.0
 31
0.0
  0
LINE
  5
1F9
100
AcDbEntity
100
AcDbLine
  8
dst_rdy_n
 62
256
370
-1
  6
ByLayer
 10
3750.0
 20
-1710.0
 30
0.0
 11
3750.0
 21
-350.0
 31
0.0
  0
MTEXT
  5
1FA
100
AcDbEntity
100
AcDbMText
  8
ext_en
 62
256
370
-1
  6
ByLayer
 10
3330.0
 20
20.0000033333333249
 30
0.0
 40
30.0
 41
100.0
 71
1
 72
2
  1
ext_en
  7
normallatin1
 50
0.0
 73
1
 44
1.0
  0
LINE
  5
1FB
100
AcDbEntity
100
AcDbLine
  8
ext_en
 62
256
370
-1
  6
ByLayer
 10
3310.0
 20
-30.0
 30
0.0
 11
3510.0
 21
-30.0
 31
0.0
  0
INSERT
  5
1FC
100
AcDbEntity
100
AcDbBlockReference
  8
ext_en
 62
256
370
-1
  6
ByLayer
  2
FORK_POINT
 10
3510.0
 20
400.0
 30
0.0
 44
1.0
 45
1.0
  0
LINE
  5
1FD
100
AcDbEntity
100
AcDbLine
  8
ext_en
 62
256
370
-1
  6
ByLayer
 10
3510.0
 20
-30.0
 30
0.0
 11
3510.0
 21
1328.78245968614101
 31
0.0
  0
LINE
  5
1FE
100
AcDbEntity
100
AcDbLine
  8
0
 62
256
370
-1
  6
ByLayer
 10
3310.0
 20
-700.0
 30
0.0
 11
2910.0
 21
-700.0
 31
0.0
  0
LINE
  5
1FF
100
AcDbEntity
100
AcDbLine
  8
0
 62
256
370
-1
  6
ByLayer
 10
2910.0
 20
-700.0
 30
0.0
 11
2910.0
 21
30.0
 31
0.0
  0
LINE
  5
200
100
AcDbEntity
100
AcDbLine
  8
CLK
 62
256
370
-1
  6
ByLayer
 10
2910.0
 20
0.0
 30
0.0
 11
2560.0
 21
0.0
 31
0.0
  0
LINE
  5
201
100
AcDbEntity
100
AcDbLine
  8
RESET
 62
256
370
-1
  6
ByLayer
 10
2910.0
 20
-50.0
 30
0.0
 11
2520.0
 21
-50.0
 31
0.0
  0
LINE
  5
202
100
AcDbEntity
100
AcDbLine
  8
EXTRACTED_DONE
 62
256
370
-1
  6
ByLayer
 10
3310.0
 20
-110.0
 30
0.0
 11
4800.0
 21
-110.0
 31
0.0
  0
LINE
  5
203
100
AcDbEntity
100
AcDbLine
  8
EXTRACTED_ERR
 62
256
370
-1
  6
ByLayer
 10
3310.0
 20
-190.0
 30
0.0
 11
4850.0
 21
-190.0
 31
0.0
  0
LINE
  5
204
100
AcDbEntity
100
AcDbLine
  8
ext_en
 62
256
370
-1
  6
ByLayer
 10
3510.0
 20
400.0
 30
0.0
 11
1640.0
 21
400.0
 31
0.0
  0
LINE
  5
205
100
AcDbEntity
100
AcDbLine
  8
ext_en
 62
256
370
-1
  6
ByLayer
 10
3800.0
 20
1328.78245968614101
 30
0.0
 11
3510.0
 21
1328.78245968614101
 31
0.0
  0
LINE
  5
206
100
AcDbEntity
100
AcDbLine
  8
dst_rdy_n
 62
256
370
-1
  6
ByLayer
 10
3750.0
 20
-1710.0
 30
0.0
 11
90.0
 21
-1710.0
 31
0.0
  0
LINE
  5
207
100
AcDbEntity
100
AcDbLine
  8
cut_word_num
 62
256
370
-1
  6
ByLayer
 10
2940.0
 20
30.0
 30
0.0
 11
2940.0
 21
360.0
 31
0.0
  0
LINE
  5
208
100
AcDbEntity
100
AcDbLine
  8
cut_word_num
 62
256
370
-1
  6
ByLayer
 10
2940.0
 20
360.0
 30
0.0
 11
1600.0
 21
360.0
 31
0.0
  0
LINE
  5
209
100
AcDbEntity
100
AcDbLine
  8
cut_word_num
 62
256
370
-1
  6
ByLayer
 10
1600.0
 20
360.0
 30
0.0
 11
1600.0
 21
550.0
 31
0.0
  0
LINE
  5
20A
100
AcDbEntity
100
AcDbLine
  8
cut_word_num
 62
256
370
-1
  6
ByLayer
 10
1600.0
 20
550.0
 30
0.0
 11
1000.0
 21
550.0
 31
0.0
  0
LINE
  5
20B
100
AcDbEntity
100
AcDbLine
  8
word_num
 62
256
370
-1
  6
ByLayer
 10
2910.0
 20
-100.0
 30
0.0
 11
2280.0
 21
-100.0
 31
0.0
  0
LINE
  5
20C
100
AcDbEntity
100
AcDbLine
  8
word_num
 62
256
370
-1
  6
ByLayer
 10
2280.0
 20
-100.0
 30
0.0
 11
2280.0
 21
20.0
 31
0.0
  0
LINE
  5
20D
100
AcDbEntity
100
AcDbLine
  8
word_num
 62
256
370
-1
  6
ByLayer
 10
2280.0
 20
20.0
 30
0.0
 11
1560.0
 21
20.0
 31
0.0
  0
LINE
  5
20E
100
AcDbEntity
100
AcDbLine
  8
word_num
 62
256
370
-1
  6
ByLayer
 10
1560.0
 20
20.0
 30
0.0
 11
1560.0
 21
170.0
 31
0.0
  0
LINE
  5
20F
100
AcDbEntity
100
AcDbLine
  8
word_num
 62
256
370
-1
  6
ByLayer
 10
1560.0
 20
170.0
 30
0.0
 11
1000.0
 21
170.0
 31
0.0
  0
LINE
  5
210
100
AcDbEntity
100
AcDbLine
  8
part_num
 62
256
370
-1
  6
ByLayer
 10
2980.0
 20
30.0
 30
0.0
 11
2980.0
 21
1060.0
 31
0.0
  0
LINE
  5
211
100
AcDbEntity
100
AcDbLine
  8
part_num
 62
256
370
-1
  6
ByLayer
 10
2980.0
 20
1060.0
 30
0.0
 11
1600.0
 21
1060.0
 31
0.0
  0
LINE
  5
212
100
AcDbEntity
100
AcDbLine
  8
part_num
 62
256
370
-1
  6
ByLayer
 10
1600.0
 20
1060.0
 30
0.0
 11
1600.0
 21
1300.0
 31
0.0
  0
LINE
  5
213
100
AcDbEntity
100
AcDbLine
  8
part_num
 62
256
370
-1
  6
ByLayer
 10
1600.0
 20
1300.0
 30
0.0
 11
1000.0
 21
1300.0
 31
0.0
  0
LINE
  5
214
100
AcDbEntity
100
AcDbLine
  8
RX_SRC_RDY_N
 62
256
370
-1
  6
ByLayer
 10
100.0
 20
-450.0
 30
0.0
 11
2910.0
 21
-450.0
 31
0.0
  0
INSERT
  5
215
100
AcDbEntity
100
AcDbBlockReference
  8
RX_SRC_RDY_N
 62
256
370
-1
  6
ByLayer
  2
FORK_POINT
 10
100.0
 20
-450.0
 30
0.0
 44
1.0
 45
1.0
  0
LINE
  5
216
100
AcDbEntity
100
AcDbLine
  8
ext_addr_index
 62
256
370
-1
  6
ByLayer
 10
3020.0
 20
550.0
 30
0.0
 11
3020.0
 21
30.0
 31
0.0
  0
INSERT
  5
217
100
AcDbEntity
100
AcDbBlockReference
  8
ext_addr_index
 62
256
370
-1
  6
ByLayer
  2
FORK_POINT
 10
3020.0
 20
550.0
 30
0.0
 44
1.0
 45
1.0
  0
LINE
  5
218
100
AcDbEntity
100
AcDbLine
  8
TX_DST_RDY_N
 62
256
370
-1
  6
ByLayer
 10
3710.0
 20
-1750.0
 30
0.0
 11
3710.0
 21
-790.0
 31
0.0
  0
LINE
  5
219
100
AcDbEntity
100
AcDbLine
  8
TX_DST_RDY_N
 62
256
370
-1
  6
ByLayer
 10
3710.0
 20
-790.0
 30
0.0
 11
2870.0
 21
-790.0
 31
0.0
  0
LINE
  5
21A
100
AcDbEntity
100
AcDbLine
  8
TX_DST_RDY_N
 62
256
370
-1
  6
ByLayer
 10
2870.0
 20
-790.0
 30
0.0
 11
2870.0
 21
-660.0
 31
0.0
  0
LINE
  5
21B
100
AcDbEntity
100
AcDbLine
  8
TX_DST_RDY_N
 62
256
370
-1
  6
ByLayer
 10
2870.0
 20
-660.0
 30
0.0
 11
2910.0
 21
-660.0
 31
0.0
  0
INSERT
  5
21C
100
AcDbEntity
100
AcDbBlockReference
  8
TX_DST_RDY_N
 62
256
370
-1
  6
ByLayer
  2
FORK_POINT
 10
3710.0
 20
-1750.0
 30
0.0
 44
1.0
 45
1.0
  0
LINE
  5
21D
100
AcDbEntity
100
AcDbLine
  8
eop_n
 62
256
370
-1
  6
ByLayer
 10
2910.0
 20
-200.0
 30
0.0
 11
2000.0
 21
-200.0
 31
0.0
  0
LINE
  5
21E
100
AcDbEntity
100
AcDbLine
  8
RX_EOP_N
 62
256
370
-1
  6
ByLayer
 10
-500.0
 20
-500.0
 30
0.0
 11
2910.0
 21
-500.0
 31
0.0
  0
LINE
  5
21F
100
AcDbEntity
100
AcDbLine
  8
RX_EOF_N
 62
256
370
-1
  6
ByLayer
 10
2910.0
 20
-610.0
 30
0.0
 11
2830.0
 21
-610.0
 31
0.0
  0
LINE
  5
220
100
AcDbEntity
100
AcDbLine
  8
RX_EOF_N
 62
256
370
-1
  6
ByLayer
 10
2830.0
 20
-610.0
 30
0.0
 11
2830.0
 21
-700.0
 31
0.0
  0
LINE
  5
221
100
AcDbEntity
100
AcDbLine
  8
RX_EOF_N
 62
256
370
-1
  6
ByLayer
 10
-500.0
 20
-700.0
 30
0.0
 11
2830.0
 21
-700.0
 31
0.0
  0
INSERT
  5
222
100
AcDbEntity
100
AcDbBlockReference
  8
RX_EOF_N
 62
256
370
-1
  6
ByLayer
  2
FORK_POINT
 10
1560.0
 20
-700.0
 30
0.0
 44
1.0
 45
1.0
  0
INSERT
  5
223
100
AcDbEntity
100
AcDbBlockReference
  8
RX_EOF_N
 62
256
370
-1
  6
ByLayer
  2
OR
 10
4700.0
 20
-300.0
 30
0.0
 44
1.0
 45
1.0
  0
LINE
  5
224
100
AcDbEntity
100
AcDbLine
  8
TX_SRC_RDY_N
 62
256
370
-1
  6
ByLayer
 10
4700.0
 20
-300.0
 30
0.0
 11
4900.0
 21
-300.0
 31
0.0
  0
LINE
  5
225
100
AcDbEntity
100
AcDbLine
  8
TX_SRC_RDY_N
 62
256
370
-1
  6
ByLayer
 10
4900.0
 20
-300.0
 30
0.0
 11
4900.0
 21
-200.0
 31
0.0
  0
LINE
  5
226
100
AcDbEntity
100
AcDbLine
  8
TX_SRC_RDY_N
 62
256
370
-1
  6
ByLayer
 10
5500.0
 20
-200.0
 30
0.0
 11
4900.0
 21
-199.9999999999997726
 31
0.0
  0
LINE
  5
227
100
AcDbEntity
100
AcDbLine
  8
send_data_rdy
 62
256
370
-1
  6
ByLayer
 10
4760.0
 20
-1280.0
 30
0.0
 11
4760.0
 21
-400.0
 31
0.0
  0
LINE
  5
228
100
AcDbEntity
100
AcDbLine
  8
send_data_rdy
 62
256
370
-1
  6
ByLayer
 10
4760.0
 20
-400.0
 30
0.0
 11
4570.0
 21
-400.0
 31
0.0
  0
LINE
  5
229
100
AcDbEntity
100
AcDbLine
  8
send_data_rdy
 62
256
370
-1
  6
ByLayer
 10
4570.0
 20
-400.0
 30
0.0
 11
4570.0
 21
-320.0
 31
0.0
  0
INSERT
  5
22A
100
AcDbEntity
100
AcDbBlockReference
  8
send_data_rdy
 62
256
370
-1
  6
ByLayer
  2
FORK_POINT
 10
4624.7358628995389154
 20
-320.0
 30
0.0
 44
1.0
 45
1.0
  0
INSERT
  5
22B
100
AcDbEntity
100
AcDbBlockReference
  8
send_data_rdy
 62
256
370
-1
  6
ByLayer
  2
FORK_POINT
 10
4760.0
 20
-1280.0
 30
0.0
 44
1.0
 45
1.0
  0
LINE
  5
22C
100
AcDbEntity
100
AcDbLine
  8
data_rem
 62
256
370
-1
  6
ByLayer
 10
2910.0
 20
-560.0
 30
0.0
 11
2790.0
 21
-560.0
 31
0.0
  0
LINE
  5
22D
100
AcDbEntity
100
AcDbLine
  8
data_rem
 62
256
370
-1
  6
ByLayer
 10
2790.0
 20
-560.0
 30
0.0
 11
2790.0
 21
-830.0
 31
0.0
  0
LINE
  5
22E
100
AcDbEntity
100
AcDbLine
  8
data_rem
 62
256
370
-1
  6
ByLayer
 10
2790.0
 20
-830.0
 30
0.0
 11
4640.0
 21
-830.0
 31
0.0
  0
LINE
  5
22F
100
AcDbEntity
100
AcDbLine
  8
data_rem
 62
256
370
-1
  6
ByLayer
 10
4640.0
 20
-830.0
 30
0.0
 11
4640.0
 21
-1050.0
 31
0.0
  0
LINE
  5
230
100
AcDbEntity
100
AcDbLine
  8
data_rem
 62
256
370
-1
  6
ByLayer
 10
4640.0
 20
-1050.0
 30
0.0
 11
4400.0
 21
-1050.0
 31
0.0
  0
LINE
  5
231
100
AcDbEntity
100
AcDbLine
  8
data_en
 62
256
370
-1
  6
ByLayer
 10
3510.0
 20
-750.0
 30
0.0
 11
1600.0
 21
-750.0
 31
0.0
  0
INSERT
  5
232
100
AcDbEntity
100
AcDbBlockReference
  8
data_en
 62
256
370
-1
  6
ByLayer
  2
FORK_POINT
 10
4624.7358628995389154
 20
-280.0
 30
0.0
 44
1.0
 45
1.0
  0
LINE
  5
233
100
AcDbEntity
100
AcDbLine
  8
data_en
 62
256
370
-1
  6
ByLayer
 10
4624.7358628995389154
 20
-280.0
 30
0.0
 11
4490.0
 21
-280.0
 31
0.0
  0
LINE
  5
234
100
AcDbEntity
100
AcDbLine
  8
send_data_rdy
 62
256
370
-1
  6
ByLayer
 10
4570.0
 20
-320.0
 30
0.0
 11
4624.7358628995389154
 21
-320.0
 31
0.0
  0
LINE
  5
235
100
AcDbEntity
100
AcDbLine
  8
src_rdy_n
 62
256
370
-1
  6
ByLayer
 10
4630.0
 20
-300.0
 30
0.0
 11
4530.0
 21
-300.0
 31
0.0
  0
LINE
  5
236
100
AcDbEntity
100
AcDbLine
  8
src_rdy_n
 62
256
370
-1
  6
ByLayer
 10
4530.0
 20
-300.0
 30
0.0
 11
4530.0
 21
-870.0
 31
0.0
  0
LINE
  5
237
100
AcDbEntity
100
AcDbLine
  8
src_rdy_n
 62
256
370
-1
  6
ByLayer
 10
4530.0
 20
-870.0
 30
0.0
 11
1260.0
 21
-870.0
 31
0.0
  0
LINE
  5
238
100
AcDbEntity
100
AcDbLine
  8
src_rdy_n
 62
256
370
-1
  6
ByLayer
 10
1260.0
 20
-870.0
 30
0.0
 11
1260.0
 21
-200.0
 31
0.0
  0
LINE
  5
239
100
AcDbEntity
100
AcDbLine
  8
send_sop_n
 62
256
370
-1
  6
ByLayer
 10
4900.0
 20
-400.0
 30
0.0
 11
4900.0
 21
-1420.0
 31
0.0
  0
LINE
  5
23A
100
AcDbEntity
100
AcDbLine
  8
send_sop_n
 62
256
370
-1
  6
ByLayer
 10
4900.0
 20
-1420.0
 30
0.0
 11
2800.0
 21
-1420.0
 31
0.0
  0
LINE
  5
23B
100
AcDbEntity
100
AcDbLine
  8
send_sop_n
 62
256
370
-1
  6
ByLayer
 10
4900.0
 20
-400.0
 30
0.0
 11
5000.0
 21
-400.0
 31
0.0
  0
LINE
  5
23C
100
AcDbEntity
100
AcDbLine
  8
send_sof_n
 62
256
370
-1
  6
ByLayer
 10
5000.0
 20
-600.0
 30
0.0
 11
3960.0
 21
-600.0
 31
0.0
  0
LINE
  5
23D
100
AcDbEntity
100
AcDbLine
  8
send_sof_n
 62
256
370
-1
  6
ByLayer
 10
3960.0
 20
-600.0
 30
0.0
 11
3960.0
 21
1060.0
 31
0.0
  0
LINE
  5
23E
100
AcDbEntity
100
AcDbLine
  8
send_sof_n
 62
256
370
-1
  6
ByLayer
 10
3960.0
 20
1060.0
 30
0.0
 11
3080.0
 21
1060.0
 31
0.0
  0
LINE
  5
23F
100
AcDbEntity
100
AcDbLine
  8
send_sof_n
 62
256
370
-1
  6
ByLayer
 10
3080.0
 20
1060.0
 30
0.0
 11
3080.0
 21
1400.0
 31
0.0
  0
LINE
  5
240
100
AcDbEntity
100
AcDbLine
  8
send_sof_n
 62
256
370
-1
  6
ByLayer
 10
3080.0
 20
1400.0
 30
0.0
 11
2800.0
 21
1400.0
 31
0.0
  0
LINE
  5
241
100
AcDbEntity
100
AcDbLine
  8
eof_n
 62
256
370
-1
  6
ByLayer
 10
2750.0
 20
-810.0
 30
0.0
 11
2750.0
 21
-910.0
 31
0.0
  0
LINE
  5
242
100
AcDbEntity
100
AcDbLine
  8
eof_n
 62
256
370
-1
  6
ByLayer
 10
2750.0
 20
-910.0
 30
0.0
 11
4570.0
 21
-910.0
 31
0.0
  0
LINE
  5
243
100
AcDbEntity
100
AcDbLine
  8
eof_n
 62
256
370
-1
  6
ByLayer
 10
1170.0
 20
-810.0
 30
0.0
 11
2750.0
 21
-810.0
 31
0.0
  0
LINE
  5
244
100
AcDbEntity
100
AcDbLine
  8
eof_n
 62
256
370
-1
  6
ByLayer
 10
1170.0
 20
-1000.0
 30
0.0
 11
1000.0
 21
-1000.0
 31
0.0
  0
LINE
  5
245
100
AcDbEntity
100
AcDbLine
  8
eof_n
 62
256
370
-1
  6
ByLayer
 10
1170.0
 20
-1000.0
 30
0.0
 11
1170.0
 21
-810.0
 31
0.0
  0
LINE
  5
246
100
AcDbEntity
100
AcDbLine
  8
send_eof_n
 62
256
370
-1
  6
ByLayer
 10
2320.0
 20
-1160.0
 30
0.0
 11
3960.0
 21
-1160.0
 31
0.0
  0
INSERT
  5
247
100
AcDbEntity
100
AcDbBlockReference
  8
send_eof_n
 62
256
370
-1
  6
ByLayer
  2
FORK_POINT
 10
2320.0
 20
-1160.0
 30
0.0
 44
1.0
 45
1.0
  0
LINE
  5
248
100
AcDbEntity
100
AcDbLine
  8
eof_n
 62
256
370
-1
  6
ByLayer
 10
4570.0
 20
-910.0
 30
0.0
 11
4570.0
 21
-720.0
 31
0.0
  0
MTEXT
  5
249
100
AcDbEntity
100
AcDbMText
  8
data_en
 62
256
370
-1
  6
ByLayer
 10
3330.0
 20
-589.9999966666666751
 30
0.0
 40
30.0
 41
100.0
 71
1
 72
2
  1
data_en
  7
normallatin1
 50
0.0
 73
1
 44
1.0
  0
LINE
  5
24A
100
AcDbEntity
100
AcDbLine
  8
data_en
 62
256
370
-1
  6
ByLayer
 10
3310.0
 20
-640.0
 30
0.0
 11
4490.0
 21
-640.0
 31
0.0
  0
INSERT
  5
24B
100
AcDbEntity
100
AcDbBlockReference
  8
data_en
 62
256
370
-1
  6
ByLayer
  2
FORK_POINT
 10
4080.0
 20
-640.0
 30
0.0
 44
1.0
 45
1.0
  0
INSERT
  5
24C
100
AcDbEntity
100
AcDbBlockReference
  8
data_en
 62
256
370
-1
  6
ByLayer
  2
FORK_POINT
 10
3510.0
 20
-640.0
 30
0.0
 44
1.0
 45
1.0
  0
LINE
  5
24D
100
AcDbEntity
100
AcDbLine
  8
data_en
 62
256
370
-1
  6
ByLayer
 10
3510.0
 20
-640.0
 30
0.0
 11
3510.0
 21
-750.0
 31
0.0
  0
LINE
  5
24E
100
AcDbEntity
100
AcDbLine
  8
send_eof_n
 62
256
370
-1
  6
ByLayer
 10
3960.0
 20
-1160.0
 30
0.0
 11
3960.0
 21
-680.0
 31
0.0
  0
LINE
  5
24F
100
AcDbEntity
100
AcDbLine
  8
data_en
 62
256
370
-1
  6
ByLayer
 10
4490.0
 20
-280.0
 30
0.0
 11
4490.0
 21
-640.0
 31
0.0
  0
INSERT
  5
250
100
AcDbEntity
100
AcDbBlockReference
  8
eof_n
 62
256
370
-1
  6
ByLayer
  2
AND
 10
4700.0
 20
-500.0
 30
0.0
 44
1.0
 45
1.0
  0
INSERT
  5
251
100
AcDbEntity
100
AcDbBlockReference
  8
0
 62
256
370
-1
  6
ByLayer
  2
AND
 10
4700.0
 20
-700.0
 30
0.0
 44
1.0
 45
1.0
  0
LINE
  5
252
100
AcDbEntity
100
AcDbLine
  8
send_eof_n
 62
256
370
-1
  6
ByLayer
 10
3960.0
 20
-680.0
 30
0.0
 11
4625.0
 21
-680.0
 31
0.0
  0
LINE
  5
253
100
AcDbEntity
100
AcDbLine
  8
eof_n
 62
256
370
-1
  6
ByLayer
 10
4625.0
 20
-720.0
 30
0.0
 11
4570.0
 21
-720.0
 31
0.0
  0
LINE
  5
254
100
AcDbEntity
100
AcDbLine
  8
0
 62
256
370
-1
  6
ByLayer
 10
5500.0
 20
-700.0
 30
0.0
 11
4700.0
 21
-699.9999999999995453
 31
0.0
  0
LINE
  5
255
100
AcDbEntity
100
AcDbLine
  8
0
 62
256
370
-1
  6
ByLayer
 10
5500.0
 20
-500.0
 30
0.0
 11
4700.0
 21
-500.0
 31
0.0
  0
LINE
  5
256
100
AcDbEntity
100
AcDbLine
  8
eop_n
 62
256
370
-1
  6
ByLayer
 10
3920.0
 20
-480.0
 30
0.0
 11
3920.0
 21
80.0
 31
0.0
  0
LINE
  5
257
100
AcDbEntity
100
AcDbLine
  8
eop_n
 62
256
370
-1
  6
ByLayer
 10
3920.0
 20
80.0
 30
0.0
 11
2790.0
 21
80.0
 31
0.0
  0
LINE
  5
258
100
AcDbEntity
100
AcDbLine
  8
eop_n
 62
256
370
-1
  6
ByLayer
 10
2790.0
 20
80.0
 30
0.0
 11
2790.0
 21
-200.0
 31
0.0
  0
INSERT
  5
259
100
AcDbEntity
100
AcDbBlockReference
  8
eop_n
 62
256
370
-1
  6
ByLayer
  2
FORK_POINT
 10
2790.0
 20
-200.0
 30
0.0
 44
1.0
 45
1.0
  0
LINE
  5
25A
100
AcDbEntity
100
AcDbLine
  8
send_eop_n
 62
256
370
-1
  6
ByLayer
 10
3920.0
 20
-520.0
 30
0.0
 11
3920.0
 21
-1000.0
 31
0.0
  0
LINE
  5
25B
100
AcDbEntity
100
AcDbLine
  8
send_eop_n
 62
256
370
-1
  6
ByLayer
 10
3920.0
 20
-1000.0
 30
0.0
 11
2000.0
 21
-1000.0
 31
0.0
  0
INSERT
  5
25C
100
AcDbEntity
100
AcDbBlockReference
  8
send_eop_n
 62
256
370
-1
  6
ByLayer
  2
FORK_POINT
 10
2360.0
 20
-1000.0
 30
0.0
 44
1.0
 45
1.0
  0
LINE
  5
25D
100
AcDbEntity
100
AcDbLine
  8
eop_n
 62
256
370
-1
  6
ByLayer
 10
4624.7358628995389154
 20
-480.0
 30
0.0
 11
3920.0
 21
-480.0
 31
0.0
  0
LINE
  5
25E
100
AcDbEntity
100
AcDbLine
  8
send_eop_n
 62
256
370
-1
  6
ByLayer
 10
4624.7358628995389154
 20
-520.0
 30
0.0
 11
3920.0
 21
-520.0
 31
0.0
  0
LINE
  5
25F
100
AcDbEntity
100
AcDbLine
  8
RX_SOP_N
 62
256
370
-1
  6
ByLayer
 10
-500.0
 20
-400.0
 30
0.0
 11
1520.0
 21
-400.0
 31
0.0
  0
LINE
  5
260
100
AcDbEntity
100
AcDbLine
  8
RX_SOP_N
 62
256
370
-1
  6
ByLayer
 10
1520.0
 20
-400.0
 30
0.0
 11
1520.0
 21
-1640.0
 31
0.0
  0
LINE
  5
261
100
AcDbEntity
100
AcDbLine
  8
TX_SOF_N
 62
256
370
-1
  6
ByLayer
 10
5500.0
 20
-600.0
 30
0.0
 11
5000.0
 21
-599.9999999999997726
 31
0.0
  0
MTEXT
  5
262
100
AcDbEntity
100
AcDbMText
  8
TX_SOF_N
 62
256
370
-1
  6
ByLayer
 10
5500.0
 20
-540.9547579288482666
 30
0.0
 40
30.0
 41
100.0
 71
3
 72
2
  1
TX_SOF_N
  7
normallatin1
 50
360.0
 73
1
 44
1.0
  0
LINE
  5
263
100
AcDbEntity
100
AcDbLine
  8
TX_SOP_N
 62
256
370
-1
  6
ByLayer
 10
5500.0
 20
-400.0
 30
0.0
 11
5000.0
 21
-399.9999999999997726
 31
0.0
  0
MTEXT
  5
264
100
AcDbEntity
100
AcDbMText
  8
TX_SOP_N
 62
256
370
-1
  6
ByLayer
 10
5500.0
 20
-340.9547579288482666
 30
0.0
 40
30.0
 41
100.0
 71
3
 72
2
  1
TX_SOP_N
  7
normallatin1
 50
360.0
 73
1
 44
1.0
  0
LINE
  5
265
100
AcDbEntity
100
AcDbLine
  8
cnt_en
 62
256
370
-1
  6
ByLayer
 10
620.0
 20
-1200.0
 30
0.0
 11
620.0
 21
1180.0
 31
0.0
  0
LINE
  5
266
100
AcDbEntity
100
AcDbLine
  8
RESET
 62
256
370
-1
  6
ByLayer
 10
660.0
 20
1330.0
 30
0.0
 11
660.0
 21
-969.9999999999995453
 31
0.0
  0
LINE
  5
267
100
AcDbEntity
100
AcDbLine
  8
CLK
 62
256
370
-1
  6
ByLayer
 10
700.0
 20
1380.0
 30
0.0
 11
700.0
 21
-920.0
 31
0.0
  0
ENDSEC
  0
SECTION
  2
OBJECTS
  0
DICTIONARY
  5
C
100
AcDbDictionary
280
0
281
1
  3
ACAD_GROUP
350
D
  3
ACAD_LAYOUT
350
1A
  3
ACAD_MLINESTYLE
350
17
  3
ACAD_PLOTSETTINGS
350
19
  3
ACAD_PLOTSTYLENAME
350
E
  3
AcDbVariableDictionary
350
268
  0
DICTIONARY
  5
D
100
AcDbDictionary
280
0
281
1
  0
ACDBDICTIONARYWDFLT
  5
E
100
AcDbDictionary
281
1
  3
Normal
350
F
100
AcDbDictionaryWithDefault
340
F
  0
ACDBPLACEHOLDER
  5
F
  0
DICTIONARY
  5
17
100
AcDbDictionary
280
0
281
1
  3
Standard
350
18
  0
MLINESTYLE
  5
18
100
AcDbMlineStyle
  2
STANDARD
 70
0
  3

 62
256
 51
90.0
 52
90.0
 71
2
 49
0.5
 62
256
  6
BYLAYER
 49
-0.5
 62
256
  6
BYLAYER
  0
DICTIONARY
  5
19
100
AcDbDictionary
280
0
281
1
  0
DICTIONARY
  5
1A
100
AcDbDictionary
281
1
  3
Layout1
350
1E
  3
Layout2
350
26
  3
Model
350
22
  0
LAYOUT
  5
1E
100
AcDbPlotSettings
  1

  2
C:\Program Files\AutoCAD 2002\plotters\DWF ePlot (optimized for plotting).pc3
  4

  6

 40
0.0
 41
0.0
 42
0.0
 43
0.0
 44
0.0
 45
0.0
 46
0.0
 47
0.0
 48
0.0
 49
0.0
140
0.0
141
0.0
142
1.0
143
1.0
 70
688
 72
0
 73
0
 74
5
  7

 75
16
147
1.0
148
0.0
149
0.0
100
AcDbLayout
  1
Layout1
 70
1
 71
1
 10
0.0
 20
0.0
 11
420.0
 21
297.0
 12
0.0
 22
0.0
 32
0.0
 14
100000000000000000000.0
 24
100000000000000000000.0
 34
100000000000000000000.0
 15
-100000000000000000000.0
 25
-100000000000000000000.0
 35
-100000000000000000000.0
146
0.0
 13
0.0
 23
0.0
 33
0.0
 16
1.0
 26
0.0
 36
0.0
 17
0.0
 27
1.0
 37
0.0
 76
0
330
1B
  0
LAYOUT
  5
22
100
AcDbPlotSettings
  1

  2
C:\Program Files\AutoCAD 2002\plotters\DWF ePlot (optimized for plotting).pc3
  4

  6

 40
0.0
 41
0.0
 42
0.0
 43
0.0
 44
0.0
 45
0.0
 46
0.0
 47
0.0
 48
0.0
 49
0.0
140
0.0
141
0.0
142
1.0
143
1.0
 70
1712
 72
0
 73
0
 74
0
  7

 75
0
147
1.0
148
0.0
149
0.0
100
AcDbLayout
  1
Model
 70
1
 71
0
 10
0.0
 20
0.0
 11
12.0
 21
9.0
 12
0.0
 22
0.0
 32
0.0
 14
0.0
 24
0.0
 34
0.0
 15
0.0
 25
0.0
 35
0.0
146
0.0
 13
0.0
 23
0.0
 33
0.0
 16
1.0
 26
0.0
 36
0.0
 17
0.0
 27
1.0
 37
0.0
 76
0
330
1F
  0
LAYOUT
  5
26
100
AcDbPlotSettings
  1

  2
C:\Program Files\AutoCAD 2002\plotters\DWF ePlot (optimized for plotting).pc3
  4

  6

 40
0.0
 41
0.0
 42
0.0
 43
0.0
 44
0.0
 45
0.0
 46
0.0
 47
0.0
 48
0.0
 49
0.0
140
0.0
141
0.0
142
1.0
143
1.0
 70
688
 72
0
 73
0
 74
5
  7

 75
16
147
1.0
148
0.0
149
0.0
100
AcDbLayout
  1
Layout2
 70
1
 71
2
 10
0.0
 20
0.0
 11
12.0
 21
9.0
 12
0.0
 22
0.0
 32
0.0
 14
0.0
 24
0.0
 34
0.0
 15
0.0
 25
0.0
 35
0.0
146
0.0
 13
0.0
 23
0.0
 33
0.0
 16
1.0
 26
0.0
 36
0.0
 17
0.0
 27
1.0
 37
0.0
 76
0
330
23
  0
DICTIONARY
  5
268
100
AcDbDictionary
281
1
  3
DIMASSOC
350
26A
  3
HIDETEXT
350
269
  0
DICTIONARYVAR
  5
269
100
DictionaryVariables
280
0
  1
2
  0
DICTIONARYVAR
  5
26A
100
DictionaryVariables
280
0
  1
1
  0
ENDSEC
  0
EOF
